<svg xmlns="http://www.w3.org/2000/svg" width="200" height="200" viewBox="0 0 200 200"><path d="M104.75 87.21c-.5-.874-2.125-4.374-2.125-4.374C103.75 80.96 103 78.21 101 76.21s-4.625-1.624-5.5-1.624-3.25 3.5-3.875 3.25-1.75-1.125-2.125-2-.625-1.5-1.25-1.125 0 0-1.125-1.124-3.25-3.125-4.875-3.625-5.5 3.626-5.5 3.626c-2.25-1.875-4.875-1.5-6.125-1.375s-4.5 2.876-5.125 3.75-3.625 2.25-4.625 2.626-2.75 1.5-3.25 2.5-2.875 2.125-2.875 2.125l-6.75 4c-5.125 3-5.25 4.126-5.25 4.126-.633.867-3.625 7.75 3.75 12.875s12 0 12 0l6.875-11.874c4.875 3.375 6.875.875 6.875.875l3.03-3.147c.178.068.477.157.97.273 2.125.5 2.75 0 2.75 0l2 1.375c-2.375 2.376.25 3.5-.5 4.25s-4.25 4.126-5.375 5.126-4.5 5.75-1.875 10.125 9.375 7.376 11.75 6.75 4.375-2.25 4.875-3.5 3.625-6.5 4-7.874 2.875-5.375 2.875-5.375l1.875-1.5c.25-1.374 4.125-8 4.75-9s1.875-2.624 1.375-3.5zm-49.22 15.533c-1.737 2.23-5.815 1.955-9.11-.612-3.295-2.566-4.56-6.453-2.823-8.68 1.736-2.23 5.814-1.956 9.11.61 3.294 2.567 4.558 6.454 2.822 8.683zm23.487-13.19c-.812 1.043-2.49 1.093-3.75.113s-1.62-2.62-.81-3.663 2.49-1.092 3.75-.112c1.26.982 1.622 2.622.81 3.664zm-2.892-6.967l4-4.25s5 .375 5.5 3c0 0-1.375 2.953-3.125 3.85 0 0-3.513-2.85-6.375-2.6zm11.16 31.532c-1.737 2.23-5.986 1.822-9.492-.91-3.506-2.73-4.94-6.75-3.204-8.978 1.735-2.23 5.984-1.822 9.49.91 3.505 2.73 4.94 6.75 3.204 8.978zm.736-34.657c-.395.5-1.895-3.5-5.77-2.124 0 0 2.5-2.5 4.5-.875s1.667 2.5 1.27 3zm3.73 26l-.81.483 8.956-15.42-8.146 14.938z"/></svg>