<svg xmlns="http://www.w3.org/2000/svg" width="200" height="200" viewBox="0 0 200 200"><path d="M73.882 90.262s5.182-5.696 12.2-8.137c0 0-1.944 3.255-.865 5.812 0 0 3.407 3.364 8.636 6.974 0 0 7.373 6.61 8.02 8.934l-2.622 1.412S84.786 91.192 73.883 90.262zm35.193 19.413s12.63-8.602 14.25-8.37c0 0 .216 8.486-6.153 13.717 0 0 5.83 10.926 3.886 14.995 0 0-5.99-4.59-10.957-11.1 0 0 .27-6.917-1.025-9.242zM55.61 120.572s1.755 3.4 2.62 6.306 2.914 5.928 4.425 6.858c1.51.93 2.375 1.627 2.375 1.627s.54-6.393-1.295-9.53c-1.835-3.14-4.21-4.767-4.75-4.65-.54.115-3.374-.61-3.374-.61zm16.654 3.664s3.454 1.104 3.994.174c.54-.93 2.05-1.51 2.915-.814.864.697 2.883 2.665 3.414 3.965.458 1.122-.184 5.393.256 8.357 0 0 .108 1.86-2.915 0-3.022-1.86-6.8-6.8-7.664-11.68zm20.118 2.181s5.195-3.19 7.118-5.845c0 0 1.703-.52 1.83 2.034.125 2.554-.235 8.39.504 10.216s-8.97-5.382-9.452-6.405z"/><path d="M108.86 116.33c-.217-1.163.215-3.604 0-4.418-.217-.814-.553-2.103-1.404-2.208-1.357-.168-2.375-.35-4.102-.58-1.727-.233-7.773-5.93-13.17-10.114-5.398-4.185-11.875-6.393-13.386-6.858-1.51-.465-7.125-1.627-11.693-.465s-11.085 7.207-11.95 8.485c-.863 1.28-1.187 1.976-5.828 4.533-4.642 2.557-6.91 8.718-6.91 8.718a16.263 16.263 0 0 0 3.24 3.487c-1.727-.232-1.835.465-1.835.465 4.21 3.72 13.278 5.114 13.278 5.114l-.864-3.72c3.023 2.207 5.29.958 5.29.958 3.562 1.89 6.045 6.25 6.045 6.25 3.24 1.167 5.723 0 5.723 0l-.756-2.868c2.915.738 4.21 0 4.21 0 6.37-3.68 7.45 3.562 8.852 3.795 1.402.232 5.505-1.162 7.556-1.51 2.05-.35 7.773-5.697 9.5-6.86 1.727-1.16 8.42.466 8.42.466s0-1.508-.217-2.67zm-59.59-3.488c-1.253 0-2.268-1.093-2.268-2.44 0-1.35 1.015-2.442 2.267-2.442 1.25 0 2.266 1.093 2.266 2.44 0 1.35-1.015 2.442-2.267 2.442zm4.1 2.38v-4.82s2.322 2.586 0 4.82zm3.693 1.69c-.41.93-.994.696-.994.696 2.914-7.44-1.512-12.902-1.512-12.902l.763-.562c4.825 5.88 2.153 11.837 1.743 12.767z"/></svg>