<svg xmlns="http://www.w3.org/2000/svg" width="200" height="200" viewBox="0 0 200 200"><path d="M106.782 85.62V51.142c0-.888-.908-1.61-2.027-1.61-1.12 0-2.027.72-2.027 1.61v34.443c1.258-.255 2.64-.296 4.054.035zm.025 5.918l-.05-3.788c0-.098-.91-.165-2.028-.15-1.12.015-2.027.106-2.026.203l.05 3.784a86.925 86.925 0 0 1 4.053-.05zm-.025 8.496a2.027 2.027 0 0 1-4.054.001v-4.987a2.027 2.027 0 1 1 4.054 0v4.987zm-3.022 22.926c1.44.758 3.87 1.258 5.413.748 1.685-.556 3.632-2.61 5.2-3.156-.235-9.86-4.44-17.72-9.606-17.72-5.318 0-9.628 8.32-9.628 18.58 0 .28.014.55.02.826l.186.016c.953-.946 1.894-1.84 4.03-1.92 2.608-.1 2.972 1.88 4.385 2.625z"/><path d="M110.857 124.777c-.894.582-2.27.768-3.614.785-1.692.022-4.37-.844-4.96-1.805-2.1-3.402-7.055 0-7.055 0-.117 1.503.06-.06 0 0 .275 9.786 4.4 16.237 9.538 16.237 4.89 0 8.92-8.64 9.537-17.75 0 0-2.69 2.04-3.446 2.533z"/><path fill="none" stroke="#000" stroke-miterlimit="10" d="M132.69 121.178c-4.692.218-5.79 5.306-9.622 5.632-3.832.327-5.935-5.236-8.704-5.035"/><path d="M106.782 147.44a2.027 2.027 0 1 1-4.054 0v-4.054a2.027 2.027 0 0 1 4.054-.001v4.054z"/><path fill="none" stroke="#000" stroke-miterlimit="10" d="M95.13 123.125c-4.692.218-4.432 5.306-8.264 5.632-3.832.327-5.935-5.236-8.704-5.035"/></svg>