<svg xmlns="http://www.w3.org/2000/svg" width="200" height="200" viewBox="0 0 200 200"><path d="M137.01 131.795l-1.035 1.285s4.154 2.164 3.01 4.956-.113 6.72-.035 7.14c.078.42-.802 2.547-2.67 2.544l-3.817 6.427 3.093 4.51s1.09.244.506-.746l-1.658-1.975s.3-.88 1.486.213c1.187 1.094 4.048 2.754 4.427 2.642.38-.113-2.532-5.624-2.532-5.624s-2.213-.16-2.423-2.537c0 0 .388-2.41 2.516-2.54 0 0 1.514-.3 2.485 1.624 0 0 .308.7-.382 2.28l2.385 5.384s1.62-.568.224-3.287c0 0-1.73-5.2-1.47-11.604 0 0 .075-4.597 3.47-3.376 0 0 3.168 1.825 3.675 2.57.507.745 2.33-.88-.248-2.01l-11.007-7.877z"/><path d="M130.122 142.372c-.72.24-4.154 6.442-4.036 7.112.108.613 3.95 3.045 4.214 2.867.607-.405 3.938-6.49 4.14-7.235.17-.62-3.573-2.992-4.318-2.742z"/><path d="M129.154 140.008s.598-1.493.888-1.26c.29.235 2.384 1.88 2.384 1.88l-1.55-2.118.474-.568s1.203 2.26 1.61 2.794c.382.503 3.12 1.95 3.655 2.853s-.55 3.52-.55 3.52c-.378.645-3.602 7.037-5.56 7.566-.782.21-4.83-2.09-7.768-5.336 0 0 .62-1.344 1.14-.968 0 0 4.893 4.68 5.84 4.66.94-.023 3.026-2.725 3.8-4.36.776-1.634 2.047-3.942 1.513-4.583-.824-.99-5.308-3.84-5.876-4.083z"/><path fill="none" stroke="#000" stroke-width=".5" stroke-miterlimit="10" d="M137.278 152.454s-2.438-2.435.31-3.52c.725-.286 2.006-.28 1.993 2.514"/><path d="M137.11 150.045l.84-.43 5.247 10.756-.767.596m3.722 2.592c-.298 1.147-1.414 1.82-2.492 1.503s-1.71-1.5-1.413-2.65c.298-1.145 1.414-1.817 2.492-1.5s1.71 1.503 1.41 2.65zm-15.69-26.698c-.204.785-.966 1.244-1.703 1.028-.74-.217-1.17-1.027-.968-1.81.204-.785.966-1.244 1.703-1.028.737.217 1.17 1.028.966 1.81zm-3.568 2.2s-1.367.106-2.98 2.42c-.877 1.258-1.718 3.797-1.83 5.03-.11 1.234.44 1.007.773-.005.333-1.012 2.398-5.185 3.73-6.27.578-.47.62-1.064.307-1.176zm-2.65 1.095s-.665-.773-.888-.23c0 0-1.516 1.746-2.132 4.114 0 0 .614.445.75.073.583-1.58 2.365-4.326 2.27-3.96zm2.46 1.02s-2.24 2.806-2.857 4.935c0 0 2.065 1.522 2.43 1.19s2.1-3.496 2.556-4.17c.455-.673-2.13-1.954-2.13-1.954zm-.94 10.788l-4.45-2.338s1.194-2.4 1.89-2.087l-.802 1.79 3.363 2.635zm26.486-15.82c-.986-.547-2.887 3.474-2.887 3.474s7.375 7.257 17.58 13.42c3.597 2.174 12.074 9.435 13.432 10.84l3.667-5.08s-12.166-8.156-14.167-9.983c-1.425-1.303-11.17-9.082-17.624-12.67zm-14.32-5.073l2.982-3.418-7.02-4.695-1.985 2.336M14.63 38.315l116.387 86.662 2.66-3.035M148.4 139.06l-9.275-7.605 2.368-2.89 9.882 6.432m-25.41-9.987a33.407 33.407 0 0 1-4.47 2.09c-1.54.585-3.124 1.065-4.75 1.373-1.623.306-3.297.44-4.96.247-1.655-.185-3.306-.738-4.68-1.736-1.38-.987-2.425-2.382-3.15-3.892-.73-1.515-1.15-3.15-1.43-4.787-.512-3.293-.427-6.63-.116-9.916l.492.394c-1.435.447-2.874.732-4.343.925-1.466.187-2.95.26-4.43.185-2.954-.14-5.96-.917-8.458-2.622-2.513-1.685-4.327-4.262-5.387-7.038-1.066-2.792-1.497-5.76-1.616-8.697l.55.4c-1.22.303-2.42.452-3.647.523-1.222.06-2.452.018-3.67-.16a14.372 14.372 0 0 1-3.56-.966 11.83 11.83 0 0 1-1.648-.85 7.263 7.263 0 0 1-.77-.52 6.415 6.415 0 0 1-.73-.576c-.48-.393-.9-.85-1.308-1.314l-.576-.726-.507-.773a14.147 14.147 0 0 1-.863-1.627c-.25-.56-.478-1.128-.653-1.714-.213-.575-.327-1.174-.48-1.763-.138-.592-.217-1.195-.328-1.792l-.19-1.808-.08-1.813.34.274c-1.017.165-2.017.213-3.03.206a18.89 18.89 0 0 1-3.013-.284c-1.985-.353-3.933-1.075-5.582-2.265-.402-.307-.805-.617-1.167-.973a9.988 9.988 0 0 1-1.03-1.117c-.32-.393-.606-.81-.87-1.243-.257-.434-.5-.88-.704-1.34-.422-.92-.72-1.887-.952-2.865-.124-.49-.186-.99-.28-1.48l-.17-1.498.177.154a17.12 17.12 0 0 1-4.778-.576c-1.55-.418-3.06-1.05-4.367-2.01a9.87 9.87 0 0 1-3.096-3.683c-.16-.37-.343-.735-.463-1.122a9.28 9.28 0 0 1-.34-1.164c-.2-.784-.29-1.59-.358-2.39l.204.185c-1.7.024-3.374-.185-5.016-.583-1.64-.4-3.234-1.033-4.665-1.954-1.43-.916-2.667-2.17-3.51-3.658-.225-.364-.394-.76-.573-1.147-.154-.398-.317-.794-.424-1.207-.134-.406-.213-.825-.3-1.242-.086-.417-.118-.842-.18-1.263l.516.11c-1.448 2.79-2.697 5.702-3.818 8.65a90.302 90.302 0 0 0-2.89 9.002 75.793 75.793 0 0 0-1.846 9.257c-.41 3.117-.614 6.26-.522 9.397.095 3.135.492 6.257 1.248 9.29.772 3.03 1.91 5.96 3.45 8.673 1.548 2.703 3.445 5.212 5.675 7.394a39.817 39.817 0 0 0 7.413 5.7c2.69 1.604 5.543 2.933 8.48 4.04 2.943 1.12 5.96 1.95 9.03 2.77 6.112 1.7 12.196 3.55 18.055 6.04 2.91 1.274 5.804 2.665 8.367 4.613 1.268.976 2.475 2.105 3.28 3.547.834 1.422 1.02 3.234.474 4.788-.53 1.56-1.507 2.88-2.56 4.072-1.064 1.193-2.23 2.274-3.395 3.347-1.165 1.074-2.345 2.128-3.43 3.273-1.06 1.143-2.128 2.394-2.478 3.94l-.098-.02c.324-1.593 1.383-2.884 2.424-4.06 1.068-1.178 2.228-2.262 3.368-3.36 1.14-1.096 2.274-2.197 3.293-3.392 1.005-1.194 1.937-2.486 2.41-3.95a5.31 5.31 0 0 0-.486-4.37c-.76-1.326-1.926-2.402-3.17-3.333-2.51-1.863-5.39-3.21-8.282-4.433-5.832-2.4-11.917-4.172-18.02-5.79a234.674 234.674 0 0 1-4.604-1.222 73.557 73.557 0 0 1-4.538-1.513c-2.99-1.12-5.9-2.467-8.655-4.1a40.784 40.784 0 0 1-7.62-5.838 33.733 33.733 0 0 1-5.85-7.627c-1.574-2.807-2.73-5.833-3.504-8.944-.76-3.117-1.147-6.312-1.227-9.506-.158-6.398.876-12.757 2.565-18.882a90.728 90.728 0 0 1 3.018-9.04c1.165-2.958 2.448-5.86 3.952-8.675l.4-.747.117.855c.056.404.083.815.164 1.215.08.4.152.803.277 1.19.098.398.252.775.395 1.156.166.37.323.747.534 1.095.792 1.42 1.957 2.62 3.325 3.516 1.368.897 2.912 1.526 4.51 1.93 1.594.4 3.257.618 4.894.608h.19l.017.186c.06.782.143 1.566.33 2.328.082.384.19.76.32 1.13.113.375.287.727.44 1.087a9.507 9.507 0 0 0 2.963 3.577c1.26.938 2.73 1.58 4.254 1.974a16.87 16.87 0 0 0 4.68.54l.158-.006.02.16.173 1.47c.097.485.16.976.284 1.453.23.957.53 1.9.943 2.79.807 1.79 2.073 3.366 3.67 4.5 1.605 1.124 3.495 1.795 5.428 2.112.97.16 1.95.232 2.934.234.978-.008 1.974-.073 2.92-.24l.322-.056.018.332.102 1.778.208 1.765c.116.58.2 1.165.34 1.74.158.566.276 1.146.49 1.695.175.562.402 1.102.648 1.634.243.53.53 1.042.84 1.533l.49.723.55.674c.39.43.788.853 1.24 1.213.216.194.446.37.688.53.235.168.47.336.726.474a10.86 10.86 0 0 0 1.553.774c1.07.444 2.207.736 3.363.897 1.157.162 2.333.197 3.505.136 1.165-.07 2.354-.23 3.46-.51l.527-.133.022.533c.123 2.875.577 5.746 1.582 8.412 1 2.657 2.687 5.07 5.03 6.66 2.33 1.61 5.174 2.372 8.02 2.523a24.36 24.36 0 0 0 4.293-.158c1.42-.177 2.852-.457 4.2-.87l.553-.167-.057.564c-.335 3.242-.47 6.527-.007 9.742.25 1.596.638 3.182 1.32 4.64.674 1.45 1.645 2.78 2.935 3.725 1.283.953 2.836 1.508 4.432 1.728 1.602.22 3.244.13 4.85-.14 1.61-.268 3.192-.71 4.734-1.258a33.231 33.231 0 0 0 4.493-1.983l.056.086z"/><path d="M60.06 149.56c-.603 1.936-.41 3.744.43 4.04s2.008-1.033 2.61-2.968.41-3.743-.43-4.04-2.008 1.034-2.61 2.97z"/><path d="M61.56 152.335l-.092.264c-.063.162-.15.392-.282.66-.255.526-.657 1.237-1.31 1.746-.154.132-.352.222-.53.31-.198.057-.382.138-.58.128-.192.024-.37 0-.537-.046a1.425 1.425 0 0 1-.445-.155c-.128-.067-.256-.103-.344-.18-.092-.07-.173-.127-.24-.176l-.207-.152.23.114.26.13c.097.06.227.072.355.115.128.042.27.078.422.072.15.018.306.01.46-.038.16-.015.298-.114.444-.18.13-.1.27-.187.378-.32.46-.5.712-1.174.855-1.68.147-.515.186-.845.186-.845l.974.227z"/><path d="M61.56 153.104s.04.33.187.847c.143.506.397 1.18.855 1.68.108.133.248.22.378.32.146.065.285.165.444.18.154.047.31.055.46.037.153.007.294-.03.423-.072.128-.043.26-.056.354-.116l.263-.13.23-.115-.207.15-.24.176c-.09.08-.218.115-.345.18a1.28 1.28 0 0 1-.442.156c-.166.047-.345.07-.538.046-.198.01-.382-.07-.58-.126-.178-.09-.376-.18-.53-.31-.653-.51-1.055-1.22-1.31-1.75a6.85 6.85 0 0 1-.282-.66l-.092-.263.974-.226z"/></svg>