<svg xmlns="http://www.w3.org/2000/svg" width="200" height="200" viewBox="0 0 200 200"><path fill="#010101" d="M83.333 92.252v-8.186c0-.514-.71-.93-1.583-.93s-1.583.416-1.583.93v8.186h3.166zm-6 .688h8v.49h-8z"/><path fill="none" stroke="#010101" stroke-miterlimit="10" d="M81.333 94.31v2.452l36.334 5.784v1.47"/><path fill="#010101" d="M114.333 115.487h8v.49h-8zm0-10.784h8v.49h-8zM116 105.88h3.667v8.92H116z"/><path fill="none" stroke="#010101" stroke-miterlimit="10" d="M117.667 116.663v2.157l-20.334 4.706v25.195"/><path fill="#010101" d="M99.667 152.054s3 .98 0 3.04c0 0 9-2.157 0-3.04zm-4.182 4.804s-7.333 1.47-7.333 3.137 7.333 1.863 7.333 1.863-3.333-2.843 0-5zm3.855 6.372v1.372s2.833 2.647-1 4.706c0 0 13-1.863 8.833-4.117s-7.833-1.96-7.833-1.96zm-4.182 7.45s-8.167 1.472-8 3.236c.167 1.765 8 2.06 8 2.06s-3.5-3.922 0-5.295zm3.5 6.766v1.47s4.167 1.962 0 4.903c0 0 9.333-1.373 8.833-4.02-.498-2.648-8.832-2.354-8.832-2.354zm-9 8.529l9-1.373s3.853 1.47 4.426 1.373c.574-.098-4.58.708-6.713.005 0 0-3.878 2.053-6.712-.005zm6.736-36.077h.93v33.332h-.93z"/></svg>