<svg xmlns="http://www.w3.org/2000/svg" width="200" height="200" viewBox="0 0 200 200"><path d="M40.154 119.663c.378-.2 1.107 1.257 1.107 1.257s-2.825 2.627-6.735 4.858c-1.38.787-4.628 3.415-5.148 3.923l-1.405-1.837s4.664-2.952 5.43-3.614c.546-.47 4.28-3.288 6.754-4.586zm5.49-1.837l-1.144-1.238 2.69-1.7.76.846M92.9 84.248L48.29 115.62l-1.02-1.1m-5.64 6.198l3.555-2.753-.907-1.046-3.788 2.326"/><path fill="none" stroke="#000" stroke-width=".25" stroke-miterlimit="10" d="M50.238 115.616s8.43.74 8.875-5.987c0 0 8.387.036 9.076-6.123 0 0 7.43-.175 7.13-5.6 0 0 5.877 1.064 6.352-4.558 0 0 4.797.26 5.056-3.908 0 0 5.123.185 5.512-3.94 0 0-2.582 16.48-8.568 24.83-2.475 3.45-2.406 12.535-1.758 15.786"/><ellipse transform="rotate(-18.396 81.93 126.132)" cx="81.916" cy="126.12" rx=".614" ry="1.335"/><path d="M82.596 126.77c.002.008-.01.1.015.287.023.18.08.413.195.59.107.182.332.264.535.235.198-.02.332-.09.334-.08-.005-.008-.09.11-.284.228-.176.13-.576.206-.9.008-.313-.18-.524-.454-.658-.658-.07-.104-.12-.194-.153-.26l-.055-.11.97-.24z"/><path d="M82.596 127.37l-.053.11c-.035.065-.084.156-.153.26-.134.203-.345.477-.66.657-.322.198-.722.122-.898-.008-.195-.12-.28-.24-.284-.23.002-.01.136.06.335.08.203.03.428-.053.535-.234.116-.18.172-.412.193-.59.027-.19.015-.28.017-.288l.97.24z"/><path fill="#010101" d="M64.08 131.638s-.005-.12.032-.362c.057-.264.22-.603.533-.96.643-.7 1.826-1.42 3.417-2.072 3.19-1.3 7.957-2.56 13.763-3.573 2.903-.507 6.072-.93 9.435-1.25 3.366-.335 6.922-.52 10.614-.59 3.69-.053 7.51.016 11.39.398 1.94.195 3.894.457 5.847.92.978.236 1.955.516 2.924.94.483.232.97.463 1.436.848.445.367.967.93 1.046 1.77-.013.34.006.256-.034.51-.046.206-.115.48-.197.605-.153.324-.35.573-.553.8-.408.455-.857.757-1.303 1.06-.9.57-1.83.995-2.764 1.378-1.87.755-3.77 1.313-5.664 1.8-3.79.975-7.574 1.598-11.245 2.085-3.677.425-7.246.738-10.63.835-3.393.126-6.6.054-9.554-.12-5.907-.347-10.802-1.104-14.125-2.065-1.657-.486-2.926-1.05-3.65-1.678-.356-.32-.557-.644-.642-.886-.07-.246-.08-.38-.08-.38v-.01zm.198 0c.018-.02-.026.512.678 1.095.692.56 1.934 1.11 3.59 1.5 1.652.407 3.708.706 6.08.867 2.37.176 5.052.235 7.976.185 2.923-.06 6.09-.21 9.424-.428 3.343-.237 6.86-.503 10.475-.98 3.62-.43 7.348-1.005 11.058-1.85 1.85-.427 3.705-.925 5.472-1.59.88-.334 1.743-.712 2.51-1.17.367-.236.742-.484.995-.76.126-.133.236-.27.295-.39.058-.083.015-.062.054-.085.027.02.022-.315.036-.218-.005-.157-.155-.416-.45-.663-.284-.25-.686-.457-1.08-.654-.817-.378-1.72-.662-2.637-.9-1.838-.474-3.743-.77-5.636-.997-3.794-.448-7.577-.59-11.233-.606-3.657-.016-7.2.144-10.548.353-3.352.212-6.512.54-9.42.91-2.91.376-5.56.84-7.882 1.38-2.326.52-4.32 1.135-5.893 1.797-1.576.646-2.74 1.36-3.344 2.02-.296.335-.436.65-.483.85-.036.222-.032.35-.032.35v-.016z"/><path fill="#010101" d="M71.568 130.103s.232.098.64.236c.388.167.997.3 1.685.52.356.083.74.172 1.14.28.397.12.836.175 1.28.27l1.367.265 1.43.184c.48.057.95.177 1.43.186.475.024.94.076 1.395.112.453.034.892.086 1.308.132l1.18.04c.73.026 1.346.092 1.778.117.434.034.683.068.683.068s-.24.054-.668.125c-.427.06-1.038.177-1.78.263-.37.046-.77.098-1.196.132-.427.004-.878.012-1.344 0-.466-.01-.95-.004-1.44-.028-.49 0-.983-.108-1.48-.16l-1.472-.225c-.482-.1-.947-.246-1.4-.362-.912-.214-1.718-.584-2.408-.865-.342-.153-.64-.333-.906-.478-.27-.14-.494-.286-.675-.41-.366-.238-.547-.407-.547-.407zm14.688.702s.223.108.625.26c.39.177.99.33 1.68.56l1.146.29c.4.117.843.17 1.29.26.45.08.91.177 1.384.25l1.446.14c.485.042.965.147 1.446.14l1.41.04c.457.01.9.036 1.32.06l1.183-.044c1.467-.045 2.457-.037 2.457-.037s-.97.152-2.44.32l-1.19.127c-.424.006-.87.018-1.335.01l-1.43-.007c-.487.017-.977-.076-1.47-.11l-1.468-.176c-.48-.086-.95-.195-1.405-.288-.917-.16-1.727-.494-2.435-.71-.348-.124-.656-.275-.932-.395-.277-.116-.51-.24-.7-.345-.383-.2-.582-.345-.582-.345z"/></svg>