<svg xmlns="http://www.w3.org/2000/svg" width="200" height="200" viewBox="0 0 200 200"><path fill="none" d="M88.28 58h-.25M88.28 123.125h-1M104.53 58v63.75"/><path fill="none" stroke="#000" stroke-miterlimit="10" d="M66.66 92.252l6.12 1.998M69.656 61.75v57.526M66.603 80.25l6.178-1.5M66.53 108.75l6.25 4.75"/><path fill="none" stroke="#7C7C7C" stroke-miterlimit="10" d="M83.03 58.5v63.75M126.53 58v65M112.53 58.5v64M97.53 58v63.75M140.03 58v63.75M151.28 58v63.75"/><path fill="none" stroke="#878787" stroke-miterlimit="10" d="M72.78 66.25h94.25M72.78 98h94.25M72.78 82.25h94.25M72.78 117h94.25"/><path fill="none" stroke="#000" stroke-miterlimit="10" d="M72.78 121.75l-6-4.75-.25-51.5 6.25-7.5z"/><path d="M66.78 117l6 4.75h93l-3 6.25-89.5 1.25-6.62-8.5 3.06 3.93-30.04-.488s-3.9-9.942-7.65-5.192c0 0-1 5.5 5.25 5.498l29.38-3.748"/><path fill="none" stroke="#000" stroke-miterlimit="10" d="M72.78 78.75h94.25M72.78 113.5h94.25M87.28 58h1v63.75M119.906 58v65.125M136.78 58v63.75M153.28 58v65.125M72.78 94.25h94.25"/><path fill="none" stroke="#000" stroke-miterlimit="10" d="M72.78 58h94.25v63.75H72.78z"/></svg>