<svg xmlns="http://www.w3.org/2000/svg" width="200" height="200" viewBox="0 0 200 200"><path d="M104.71 78.54s-13.375-3.5-23 4.375c0 0-8.875 7-18 26.875v.625s1.25-.875 2.375 1.375c0 0 1.875 2.625 2.125 5.75 0 0-.625.375-1.125.75l.25.875s5.25-1 2 2.75l46.625 1v.625s-.125-4.375 6-3.125c0 0 4-7.75 12.625-8.75 0 0-13.875-30.375-29.875-33.125zm-34.773 22.957s8.625-16.875 12.875-17.375c0 0 2.375.125-1.375 4.125 0 0-7.375 11.125-8.875 18.125 0 0-1.567-4.605-2.625-4.875zm1.273 17.668S90.835 87.29 95.835 85.79c0 0 10.25 10.5 19.375 34.625l-44-1.25zm48.625-10.75s-4.875-17.75-9-20.125c0 0 .82-4.19 4.375-2.5 0 0 8.25 7.25 13.625 18l-9 4.625z"/><path d="M95.5 86.025s-11.5 13.1-12.875 17.1-3 12.15-3 12.15 23.625-.125 24 0 7.125-2 5.25-8.25c0 0-10.125-20.125-13-21M70.5 101.894l1.375 2.75s5.133-10.77 6.383-12.27-5.383 3.77-7.758 9.52zM120.375 106.685s6.125-2.75 6.5-3.125-6.875-11-9-10.75c0 0-2.125.25-1.125 3.875s3.625 10 3.625 10z"/></svg>