<svg xmlns="http://www.w3.org/2000/svg" width="200" height="200" viewBox="0 0 200 200"><path d="M92.333 60.75s-15.167 0-33.167 26.083c-2.68 3.885-7.798 12.902-8.87 15.56-1.86 4.604-5.098 15.812-5.463 20.356l15 6.25c.167-13 6.56-33.03 9.36-38.49 3.36-6.552 15.432-25.26 23.14-29.76z"/><path d="M95.378 60.825l4.622.25c17 2.5 19.825 9.056 25 14.175 13.703 13.557 28.25 52 28.25 52L143.5 129c-.75-3-4.5-12.25-4.5-12.25C132 96.5 120.75 91 120.75 91c-10.5-7-18.25 5-18.25 5-8 9-6 41-6 41l-8 1.75L62.25 129s.82-8.94 3.257-17.33c2.558-8.815 4.993-18.336 12.327-30.003C81.917 75.17 91.75 62.75 95.378 60.825z"/></svg>