<svg xmlns="http://www.w3.org/2000/svg" width="40" height="40" viewBox="0 0 40 40">
<defs>
    <style>
      .cls-1 {
        fill: #de0914;
        fill-rule: evenodd;
      }
    </style>
  </defs>
  <path class="cls-1" d="M1631.5,564.5a20,20,0,0,0-33.84-14.434,1.185,1.185,0,1,0,1.64,1.711,17.626,17.626,0,1,1-.39,25.066c0.02-.085.05-0.169,0.07-0.252a1.44,1.44,0,0,1,.05-0.2l0.09-.3c0.02-.059.03-0.119,0.05-0.178l0.12-.34c0.01-.043.03-0.086,0.04-0.129q0.18-.465.39-0.909l0.06-.131c0.05-.1.1-0.205,0.16-0.306a1.173,1.173,0,0,0,.08-0.158c0.05-.09.1-0.18,0.15-0.268,0.04-.056.07-0.112,0.11-0.168l0.15-.246a1.629,1.629,0,0,1,.11-0.17c0.05-.077.1-0.155,0.16-0.231,0.04-.058.08-0.113,0.12-0.17,0.06-.073.11-0.147,0.16-0.219,0.05-.056.09-0.111,0.14-0.167a2.671,2.671,0,0,1,.17-0.208,2.038,2.038,0,0,1,.14-0.164c0.06-.066.11-0.133,0.17-0.2l0.15-.159c0.06-.063.12-0.127,0.18-0.189s0.11-.1.16-0.153,0.13-.121.19-0.18,0.11-.1.16-0.147c0.07-.058.13-0.115,0.2-0.171,0.05-.048.11-0.1,0.17-0.142s0.13-.108.2-0.162l0.18-.134q0.105-.078.21-0.153l0.18-.128,0.21-.143c0.06-.04.13-0.081,0.19-0.12s0.15-.09.22-0.134,0.13-.076.19-0.113c0.08-.043.15-0.084,0.23-0.125s0.13-.07.2-0.105,0.15-.077.23-0.115,0.13-.065.2-0.1,0.16-.071.24-0.106,0.14-.06.21-0.088,0.16-.065.24-0.1,0.14-.054.21-0.079,0.16-.058.25-0.086l0.21-.07c0.08-.026.17-0.051,0.26-0.075,0.07-.021.14-0.042,0.21-0.061,0.09-.024.18-0.045,0.26-0.066l0.22-.051c0.09-.02.18-0.037,0.27-0.055l0.21-.042,0.28-.044,0.21-.032c0.1-.013.2-0.023,0.3-0.033,0.07-.007.13-0.016,0.2-0.021,0.11-.01.22-0.016,0.34-0.023l0.16-.011c0.17-.007.34-0.011,0.51-0.011h2.92a11.4,11.4,0,0,1,8.82,4.166,1.185,1.185,0,1,0,1.83-1.507,13.779,13.779,0,0,0-7.09-4.565,7.57,7.57,0,1,0-10.04,0c-0.03.01-.07,0.02-0.11,0.031-0.16.045-.33,0.092-0.49,0.143l-0.06.018c-0.17.057-.35,0.119-0.53,0.183-0.05.02-.11,0.042-0.16,0.063-0.12.046-.24,0.093-0.36,0.142-0.07.028-.13,0.057-0.2,0.085-0.11.046-.21,0.093-0.32,0.141-0.07.032-.14,0.065-0.2,0.1-0.11.049-.21,0.1-0.31,0.15-0.06.035-.13,0.07-0.2,0.106-0.1.053-.2,0.108-0.3,0.164-0.06.037-.12,0.072-0.19,0.11-0.1.061-.2,0.124-0.31,0.188-0.05.035-.11,0.068-0.16,0.1-0.13.082-.26,0.166-0.38,0.252l-0.09.058c-0.15.107-.3,0.216-0.44,0.329a1.3,1.3,0,0,0-.13.1c-0.11.081-.21,0.162-0.31,0.247-0.05.044-.11,0.09-0.16,0.136-0.09.075-.18,0.151-0.26,0.229-0.06.05-.11,0.1-0.17,0.152q-0.12.114-.24,0.231c-0.05.053-.11,0.107-0.16,0.161q-0.12.12-.24,0.243l-0.15.162c-0.08.088-.16,0.177-0.23,0.266-0.05.051-.09,0.1-0.14,0.154q-0.135.164-.27,0.332a0.773,0.773,0,0,1-.08.1c-0.11.147-.22,0.3-0.33,0.448l-0.09.123c-0.07.113-.15,0.226-0.23,0.341a1.705,1.705,0,0,1-.11.177c-0.06.1-.12,0.2-0.18,0.3l-0.12.2c-0.05.1-.11,0.2-0.16,0.3a1.958,1.958,0,0,0-.11.206c-0.06.1-.11,0.2-0.16,0.3a2.071,2.071,0,0,1-.1.208c-0.05.107-.09,0.216-0.14,0.326l-0.09.2c-0.05.127-.1,0.256-0.15,0.386-0.02.049-.04,0.1-0.06,0.147a0.021,0.021,0,0,1-.01.021,17.583,17.583,0,0,1-3.22-10.163,1.185,1.185,0,1,0-2.37,0,20,20,0,0,0,34.74,13.51h0.01A19.98,19.98,0,0,0,1631.5,564.5Zm-20-9.264a5.2,5.2,0,1,1-5.2,5.2A5.205,5.205,0,0,1,1611.5,555.236Z" transform="translate(-1591.5 -544.5)"/>
</svg>
