<svg xmlns="http://www.w3.org/2000/svg" width="45.06" height="40" viewBox="0 0 45.06 40">
  <metadata><?xpacket begin="﻿" id="W5M0MpCehiHzreSzNTczkc9d"?>
<x:xmpmeta xmlns:x="adobe:ns:meta/" x:xmptk="Adobe XMP Core 5.6-c138 79.159824, 2016/09/14-01:09:01        ">
   <rdf:RDF xmlns:rdf="http://www.w3.org/1999/02/22-rdf-syntax-ns#">
      <rdf:Description rdf:about=""/>
   </rdf:RDF>
</x:xmpmeta>
                                                                                                    
                                                                                                    
                                                                                                    
                                                                                                    
                                                                                                    
                                                                                                    
                                                                                                    
                                                                                                    
                                                                                                    
                                                                                                    
                                                                                                    
                                                                                                    
                                                                                                    
                                                                                                    
                                                                                                    
                                                                                                    
                                                                                                    
                                                                                                    
                                                                                                    
                                                                                                    
                           
<?xpacket end="w"?></metadata>
<defs>
    <style>
      .cls-1 {
        fill: #de0914;
        fill-rule: evenodd;
      }
    </style>
  </defs>
  <path id="basket" class="cls-1" d="M1524.31,73.588a2.129,2.129,0,0,0,1.05-.273,2.159,2.159,0,0,0,1.13-1.893,2.25,2.25,0,0,0-.27-1.063l-7.92-13.736a2.188,2.188,0,0,0-1.91-1.122,2.217,2.217,0,0,0-1.06.268,2.182,2.182,0,0,0-1.12,1.9,2.13,2.13,0,0,0,.27,1.061l7.92,13.736A2.182,2.182,0,0,0,1524.31,73.588Zm-23.69-.274a2.176,2.176,0,0,0,2.96-.849l7.92-13.737a2.144,2.144,0,0,0,.28-1.061,2.178,2.178,0,0,0-2.18-2.167,2.165,2.165,0,0,0-1.91,1.122l-7.93,13.735a2.252,2.252,0,0,0-.27,1.063A2.178,2.178,0,0,0,1500.62,73.313Zm32.72-2.8h-4.96a4.179,4.179,0,0,1-7.74,2.918c0.02,0.033-1.68-2.919-1.68-2.919h-11.93l-1.69,2.929a4.192,4.192,0,0,1-7.69-.875,4.092,4.092,0,0,1-.05-2.054h-4.94a2.184,2.184,0,1,0,0,4.368h0.71a1.6,1.6,0,0,0,.05.3l4.32,16.231a3.559,3.559,0,0,0,3.24,2.487h0.76v0.8a0.936,0.936,0,0,0,1.03.8h5.79a0.942,0.942,0,0,0,1.03-.8V93.9h7.46v0.8a0.936,0.936,0,0,0,1.03.8h5.79a0.936,0.936,0,0,0,1.03-.8V93.9h0.12a3.559,3.559,0,0,0,3.24-2.487l4.32-16.231a1.589,1.589,0,0,0,.05-0.3h0.7A2.184,2.184,0,1,0,1533.34,70.515ZM1503.83,89.45a1.24,1.24,0,0,1-2.48,0V80.029a1.24,1.24,0,0,1,2.48,0V89.45Zm6.94,0a1.24,1.24,0,0,1-2.48,0V80.029a1.24,1.24,0,0,1,2.48,0V89.45Zm6.95,0a1.245,1.245,0,0,1-2.49,0V80.029a1.245,1.245,0,0,1,2.49,0V89.45Zm6.94,0a1.245,1.245,0,0,1-2.49,0V80.029a1.245,1.245,0,0,1,2.49,0V89.45Z" transform="translate(-1490.47 -55.5)"/>
</svg>
