<svg xmlns="http://www.w3.org/2000/svg" width="14" height="14" viewBox="0 0 14 14">
  <metadata><?xpacket begin="﻿" id="W5M0MpCehiHzreSzNTczkc9d"?>
<x:xmpmeta xmlns:x="adobe:ns:meta/" x:xmptk="Adobe XMP Core 5.6-c138 79.159824, 2016/09/14-01:09:01        ">
   <rdf:RDF xmlns:rdf="http://www.w3.org/1999/02/22-rdf-syntax-ns#">
      <rdf:Description rdf:about=""/>
   </rdf:RDF>
</x:xmpmeta>
                                                                                                    
                                                                                                    
                                                                                                    
                                                                                                    
                                                                                                    
                                                                                                    
                                                                                                    
                                                                                                    
                                                                                                    
                                                                                                    
                                                                                                    
                                                                                                    
                                                                                                    
                                                                                                    
                                                                                                    
                                                                                                    
                                                                                                    
                                                                                                    
                                                                                                    
                                                                                                    
                           
<?xpacket end="w"?></metadata>
<defs>
    <style>
      .cls-1 {
        fill: #333;
        fill-rule: evenodd;
      }
    </style>
  </defs>
  <path id="calendar" class="cls-1" d="M1308.64,2424h-12.28a0.864,0.864,0,0,1-.86-0.88v-10.79a0.862,0.862,0,0,1,.86-0.87h12.28a0.862,0.862,0,0,1,.86.87v10.79A0.864,0.864,0,0,1,1308.64,2424Zm-12.28-11.96a0.29,0.29,0,0,0-.29.29v10.79a0.293,0.293,0,0,0,.29.3h12.28a0.293,0.293,0,0,0,.29-0.3v-10.79a0.29,0.29,0,0,0-.29-0.29h-12.28Zm2.85,1.17a0.288,0.288,0,0,1-.28-0.29v-2.63a0.285,0.285,0,1,1,.57,0v2.63A0.29,0.29,0,0,1,1299.21,2413.21Zm6.29,0a0.29,0.29,0,0,1-.29-0.29v-2.63a0.29,0.29,0,0,1,.58,0v2.63A0.29,0.29,0,0,1,1305.5,2413.21Zm-3.14,0a0.29,0.29,0,0,1-.29-0.29v-2.63a0.285,0.285,0,1,1,.57,0v2.63A0.288,0.288,0,0,1,1302.36,2413.21Zm-3.43,2.91h-1.72v-1.75h1.72v1.75Zm-1.14-.58h0.57v-0.58h-0.57v0.58Zm4,0.58h-1.72v-1.75h1.72v1.75Zm-1.15-.58h0.57v-0.58h-0.57v0.58Zm4,0.58h-1.71v-1.75h1.71v1.75Zm-1.14-.58h0.57v-0.58h-0.57v0.58Zm4,0.58h-1.71v-1.75h1.71v1.75Zm-1.14-.58h0.57v-0.58h-0.57v0.58Zm-7.43,3.5h-1.72v-1.75h1.72v1.75Zm-1.14-.58h0.57v-0.59h-0.57v0.59Zm4,0.58h-1.72v-1.75h1.72v1.75Zm-1.15-.58h0.57v-0.59h-0.57v0.59Zm4,0.58h-1.71v-1.75h1.71v1.75Zm-1.14-.58h0.57v-0.59h-0.57v0.59Zm4,0.58h-1.71v-1.75h1.71v1.75Zm-1.14-.58h0.57v-0.59h-0.57v0.59Zm-7.43,3.5h-1.72v-1.75h1.72v1.75Zm-1.14-.59h0.57v-0.58h-0.57v0.58Zm4,0.59h-1.72v-1.75h1.72v1.75Zm-1.15-.59h0.57v-0.58h-0.57v0.58Zm4,0.59h-1.71v-1.75h1.71v1.75Zm-1.14-.59h0.57v-0.58h-0.57v0.58Zm4,0.59h-1.71v-1.75h1.71v1.75Zm-1.14-.59h0.57v-0.58h-0.57v0.58Z" transform="translate(-1295.5 -2410)"/>
</svg>
