<svg xmlns="http://www.w3.org/2000/svg" width="59.688" height="40.03" viewBox="0 0 59.688 40.03">
  <metadata><?xpacket begin="﻿" id="W5M0MpCehiHzreSzNTczkc9d"?>
<x:xmpmeta xmlns:x="adobe:ns:meta/" x:xmptk="Adobe XMP Core 5.6-c138 79.159824, 2016/09/14-01:09:01        ">
   <rdf:RDF xmlns:rdf="http://www.w3.org/1999/02/22-rdf-syntax-ns#">
      <rdf:Description rdf:about=""/>
   </rdf:RDF>
</x:xmpmeta>
                                                                                                    
                                                                                                    
                                                                                                    
                                                                                                    
                                                                                                    
                                                                                                    
                                                                                                    
                                                                                                    
                                                                                                    
                                                                                                    
                                                                                                    
                                                                                                    
                                                                                                    
                                                                                                    
                                                                                                    
                                                                                                    
                                                                                                    
                                                                                                    
                                                                                                    
                                                                                                    
                           
<?xpacket end="w"?></metadata>
<defs>
    <style>
      .cls-1 {
        fill: #de0914;
        fill-rule: evenodd;
      }
    </style>
  </defs>
  <path class="cls-1" d="M557.734,2162.07H523.116v22.65h34.618v-22.65ZM536.3,2176.72a0.356,0.356,0,0,1-.022.15,0.1,0.1,0,0,1-.121.07,0.025,0.025,0,0,1-.024-0.01,0.336,0.336,0,0,1-.125-0.09l-2.874-2.89a0.694,0.694,0,0,1-.125-0.22v-0.18a0.977,0.977,0,0,1,.29-0.37l0.938-.95,1.772-1.79a0.4,0.4,0,0,1,.1-0.08,0.109,0.109,0,0,1,.157.02,0.122,0.122,0,0,1,.022.05,0.477,0.477,0,0,1,.013.13v6.16Zm7.83,1.8a0.236,0.236,0,0,1-.075.1c-0.955.97-1.91,1.93-2.866,2.9a0.659,0.659,0,0,1-.227.13h-0.112v-0.01a0.784,0.784,0,0,1-.336-0.24c-0.744-.75-1.489-1.51-2.235-2.26-0.172-.17-0.343-0.35-0.515-0.52l-0.01-.01a0.191,0.191,0,0,1-.064-0.19,0.167,0.167,0,0,1,.172-0.08h1.186a0.392,0.392,0,0,0,.439-0.35,0.482,0.482,0,0,0,0-.1v-2.25a0.4,0.4,0,0,1,.38-0.42H542a0.391,0.391,0,0,1,.4.37,0.258,0.258,0,0,1,0,.04v2.26a0.429,0.429,0,0,0,.056.25,0.361,0.361,0,0,0,.342.2h1.1a0.723,0.723,0,0,1,.147.02,0.12,0.12,0,0,1,.083.14A0.023,0.023,0,0,1,544.126,2178.52Zm0.056-9.55a0.092,0.092,0,0,1-.079.04c-0.035,0-.071.01-0.107,0.01h-1.173a0.384,0.384,0,0,0-.411.36c0,0.01,0,.02,0,0.03v2.16a0.393,0.393,0,0,1-.357.43,0.1,0.1,0,0,1-.077,0H539.9a0.389,0.389,0,0,1-.424-0.36c0-.02,0-0.05,0-0.07v-2.11a0.431,0.431,0,0,0-.393-0.45h-0.045c-0.407.02-.813,0-1.219,0a0.209,0.209,0,0,1-.134-0.02,0.107,0.107,0,0,1-.082-0.13,0.13,0.13,0,0,1,.013-0.03,0.325,0.325,0,0,1,.071-0.1l2.93-2.96a0.472,0.472,0,0,1,.214-0.12h0.162a0.751,0.751,0,0,1,.274.19c0.943,0.96,1.888,1.91,2.834,2.87a0.48,0.48,0,0,1,.083.1A0.112,0.112,0,0,1,544.182,2168.97Zm4.418,5.06c-0.584.58-1.166,1.17-1.747,1.76l-0.979.99a0.176,0.176,0,0,1-.2.08,0.166,0.166,0,0,1-.086-0.18v-6.01a0.528,0.528,0,0,1,.02-0.18,0.1,0.1,0,0,1,.128-0.08,0.051,0.051,0,0,1,.038.01,0.387,0.387,0,0,1,.1.08q1.41,1.425,2.82,2.85a0.567,0.567,0,0,1,.122.22v0.14h0A0.81,0.81,0,0,1,548.6,2174.03Zm34.2,12.85h-0.736v-5.72a1.776,1.776,0,0,0-.015-0.23l-1.536-11.04a1.658,1.658,0,0,0-1.64-1.44H561.86a1.665,1.665,0,0,0-1.655,1.67h0v16.76H523.116v6.64H529.3a6.752,6.752,0,0,0,0,3.76,6.586,6.586,0,0,0,8.187,4.52,6.684,6.684,0,0,0,4.472-8.28h24.6a6.762,6.762,0,0,0,0,3.62,6.587,6.587,0,0,0,8.136,4.61,6.682,6.682,0,0,0,4.563-8.23h3.55v-6.64Zm-47.165,11.76a3.245,3.245,0,1,1,3.2-3.24A3.231,3.231,0,0,1,535.639,2198.64Zm37.27-.07a3.245,3.245,0,1,1,3.2-3.25A3.239,3.239,0,0,1,572.909,2198.57Zm-4.264-18.23-5.126-5.18v-3.37h13.924l1.186,8.55h-9.984Z" transform="translate(-523.125 -2162.06)"/>
</svg>
