<svg xmlns="http://www.w3.org/2000/svg" fill="#164F86" viewBox="0 0 622 464" fill-rule="evenodd" clip-rule="evenodd" id="svg2" shape-rendering="geometricPrecision" text-rendering="geometricPrecision" image-rendering="optimizeQuality"><defs id="defs4"><style id="style6">.fil0 {fill:#1162AB}</style></defs><g id="g8" fill="#1162AB"><path class="fil0" d="M596.87 56.42c2-2 3-4 4-6 13-29-21-64-44-45-21 18-465-61-465 333-26 10-85 50-92 84 15-3 54 26 94 2 24 25 36 27 68 40 15-51 7-86-39-117 64-44 135-13 206-17 78-5 150-40 183-110-54 11-163-60-155-132-1 67 142 176 201 99 22-29 15-59 36-71 52-28 19-71 3-60zm-319 17c-10 8-21 21-14 34-17 8-32 23-17 38-21 18-28-12-37-28-8 16-17 37-11 55-7 1-13 3-18 5-2-2-5-6-3-10l-7-4c-3 8 1 15 4 19-6 6-8 14-6 23-20 22 0 49 0 49l6-5s-14-18-4-36c8 17 23 17 36 14 3 2 7 4 11 6l3-7c-19-8-30-26-10-40 14 6 30 0 43-4-13-14-8-16 0-31 9 5 19 7 23 8 6 8 17 15 30 21l3-7c-42-19-35-32 1-53-26-4-61-14-29-41l-4-6zm-75 106c1 1 1 2 2 2-14 11-16 26-5 39-27 6-39-39 3-41zm39-21c-4 7-6 13-1 20-36 11-43-12-30-44 5 11 14 31 31 24zm27-45c1 1 1 2 2 2 1 1 2 1 3 2 4 3 10 5 16 7-13 9-17 18-16 26-32-7-34-25-5-37zm163-16c-6 33 29 46 54 28 14-11 23-32 11-48-17-24-57-7-65 20zm32 5c7 9 21 12 29 2-2 6-6 11-12 15-11 8-29 10-38-2-8-12-1-29 10-37 6-4 12-6 17-6-11 4-13 18-6 28zm7-20c5-4 12-1 15 3 4 5 5 12-1 16-5 4-11 1-15-4-3-4-4-12 1-15zm-171 132c32 24 5 35-19 44 49 21 98 2 138-28-23-5-22-9-7-23-38-2-75-5-112 7zm94 4c-12 5-48 18-69 15l-1 8c22 3 57-12 70-18 0 1 1 2 2 4-15 6-51 21-60 19l-2 7c12 4 55-15 68-20l2 1c-27 16-71 31-103 24 16-9 31-24 15-41 16-4 35-4 52-4-11 4-25 8-34 7l-2 7c19 4 51-12 53-14l11 1-2 4zm-266 156c-16 8-31-5-41-15-9 7-32 25-34 36l7 1c2-7 20-22 26-27l3 3c-5 4-14 14-16 21l7 1c2-5 11-14 15-18 1 1 2 2 3 2-8 9-11 17-14 28l5 6c3-3 5-20 17-30 1 0 2 1 3 1-2 4-4 11-2 19l8-1c-2-8 0-14 1-17 3 0 6 0 9-1 0 0 2 13 2 15h8c-3-13-2-13-7-24z" id="path10"/><path class="fil0" d="M258.87 43.42c-42-12-91-10-126 17-12 8-1 21-1 21 7 26-47 27-41 44 5 13 8 21-4 25-17 6-26 23-29 43-2 12-13 4-19 12-8 15 13 15 13 26 0 9-15 10-7 19 9 10 29 12 45 13 1-7 2-12 3-18-9 4-26 6-37 6v-8c12 0 29-2 40-8 1-5 2-10 3-14-16 4-37 11-37 11l-3-7s25-9 43-13l2-6c-8 0-37 1-44 4l-4-6c17-9 40-22 58-23l3-6c-17 2-47 11-47 12l-2-8s36-12 53-12c3-6 6-11 10-17-17 4-45 18-45 18l-4-7s37-18 53-19h1c2-3 3-5 5-7-17 2-36 7-36 7l-2-8s26-6 44-7c2-2 3-4 5-6-17-1-46 4-46 4l-1-7s36-7 53-5l12-12c-16 2-33 5-33 5l-1-8s24-4 43-5c2-1 4-3 6-5-17-2-39-1-39-1l1-8s27 0 46 3c2-2 3-3 5-4-14-7-51-9-52-9l1-8c23 2 37-23 84-4 9-5 19-10 28-14zm-92 20c12 2 27 4 35 8 1 1 2 1 3 2 6-4 12-8 18-11-22-8-34-5-56 1zm-85 136c8 0 17-1 25-1 1-3 2-6 4-9-5 1-24 8-29 10z" id="path12"/><path class="fil0" d="M314.87 338.42c-15 14-28 30-41 49-35-4-58-25-62-56 10 1 21 1 31 2l-22 11 3 7 34-16h4l-31 21 4 6 40-26 4 1-34 26 5 6 40-31h5l-31 34 6 5 35-39h10z" id="path14"/></g></svg>