<?xml version="1.0" encoding="utf-8"?>
<!-- Generator: Adobe Illustrator 19.2.1, SVG Export Plug-In . SVG Version: 6.00 Build 0)  -->
<svg version="1.1"
	 id="svg2" image-rendering="optimizeQuality" text-rendering="geometricPrecision" shape-rendering="geometricPrecision"
	 xmlns="http://www.w3.org/2000/svg" xmlns:xlink="http://www.w3.org/1999/xlink" x="0px" y="0px" viewBox="0 0 110 126"
	 style="enable-background:new 0 0 110 126;" xml:space="preserve">
<style type="text/css">
	.st0{fill:#1162AB;}
	.st1{fill:#EAAB3B;}
	.st2{fill:#E8E83D;}
	.st3{fill:#E8D83D;}
	.st4{fill:#EFF419;}
</style>
<g id="g8">
	<g>
		<path class="st0" d="M24.5,41.3c0.9,0.7,1.9,0.2,2.6-0.7c0.6-0.7,0.7-2.1-0.2-2.6c-0.9-0.7-2.1-0.2-2.6,0.5
			C23.6,39.4,23.5,40.6,24.5,41.3z"/>
		<path class="st0" d="M30.1,37.6c-1.1-0.7-2.1-1-3-1c2,0.7,2.3,3.2,1.1,4.9c-1.3,1.5-3.7,2-5.1,0.3c0.4,1,1.1,1.9,2.1,2.6
			c1.9,1.4,5,1.8,6.6-0.3C33.2,42,32,39,30.1,37.6z"/>
		<path class="st0" d="M62.2,43.6c-0.1,0.1-0.1,0.3-0.3,0.3c-0.2,0.1-0.3,0.1-0.5,0.3c-0.7,0.5-1.8,0.9-2.8,1.2
			c2.3,1.5,3,3.1,2.8,4.5C67,48.7,67.4,45.5,62.2,43.6z"/>
		<path class="st0" d="M93.2,82.9c0-68.9-77.7-55.1-81.4-58.3c-4-3.3-10,2.8-7.7,7.9c0.3,0.3,0.5,0.6,0.8,1c-2.8-2-8.6,5.6,0.5,10.5
			c3.7,2.1,2.4,7.3,6.3,12.4C22,69.9,47,50.8,46.9,39.1c1.4,12.6-17.7,25-27.1,23.1c5.8,12.2,18.4,18.4,32,19.2
			c12.4,0.7,24.8-4.7,36,3c-8,5.4-9.4,11.5-6.8,20.5c5.6-2.3,7.7-2.6,11.9-7c7,4.2,13.8-0.9,16.4-0.3
			C108.1,91.7,97.8,84.7,93.2,82.9z M24.3,45.5c-2.4-1.9-4-5.6-1.9-8.4c3-4.2,10-1.2,11.3,3.5C34.8,46.4,28.7,48.6,24.3,45.5z
			 M98.8,93c-0.3-1.2-3.5-3.8-4.5-4.7l-0.5,0.5c0.9,0.7,2.5,2.5,2.8,3.7l-1.2,0.2c-0.3-0.8-1.9-2.4-2.6-3.1
			c-0.2,0.1-0.3,0.3-0.5,0.3c1.4,1.6,1.9,3,2.4,4.9l-0.9,1c-0.6-0.5-0.9-3.5-3-5.2c-0.2,0-0.3,0.2-0.5,0.2c0.3,0.7,0.6,1.9,0.3,3.3
			l-1.4-0.2c0.3-1.4,0-2.5-0.2-3c-0.6,0-1.1,0-1.6-0.2c0,0-0.3,2.3-0.3,2.6h-1.4c0.6-2.3,0.4-2.3,1.2-4.2c2.8,1.4,5.5-0.9,7.2-2.6
			c1.5,1.2,5.6,4.4,5.9,6.3L98.8,93z"/>
		<path class="st0" d="M67,51.3c0.7,1.2,1.1,2.3,0.2,3.5c6.2,1.9,7.5-2.1,5.2-7.7C71.6,49,70,52.5,67,51.3z"/>
		<path class="st0" d="M73.8,55.1c-0.1,0.1-0.1,0.3-0.3,0.3c2.5,1.9,2.8,4.5,0.9,6.8C79.1,63.2,81.2,55.3,73.8,55.1z"/>
	</g>
	<path id="path12" class="st0" d="M64,31.2c1.6,0.7,3.3,1.6,4.9,2.4c8.2-3.3,10.7,1,14.7,0.7l0.2,1.4c-0.2,0-6.6,0.3-9.1,1.6
		c0.3,0.2,0.5,0.3,0.9,0.7c3.3-0.5,8-0.5,8-0.5l0.2,1.4c0,0-3.8-0.2-6.8,0.2c0.3,0.3,0.7,0.7,1,0.9c3.3,0.2,7.5,0.9,7.5,0.9
		l-0.2,1.4c0,0-3-0.5-5.8-0.9l2.1,2.1c3-0.3,9.3,0.9,9.3,0.9l-0.2,1.2c0,0-5.1-0.9-8-0.7c0.3,0.3,0.5,0.7,0.9,1
		c3.1,0.2,7.7,1.2,7.7,1.2L91,48.5c0,0-3.3-0.9-6.3-1.2c0.3,0.3,0.5,0.7,0.9,1.2h0.2c2.8,0.2,9.3,3.3,9.3,3.3L94.4,53
		c0,0-4.9-2.4-7.9-3.1c0.7,1,1.2,1.9,1.7,3c3,0,9.3,2.1,9.3,2.1l-0.3,1.4c0-0.2-5.2-1.7-8.2-2.1l0.5,1c3.1,0.2,7.2,2.4,10.1,4
		l-0.7,1c-1.2-0.5-6.3-0.7-7.7-0.7l0.3,1C94.7,61.5,99,63,99,63l-0.5,1.2c0,0-3.7-1.2-6.5-1.9c0.2,0.7,0.3,1.6,0.5,2.4
		c1.9,1,4.9,1.4,7,1.4v1.4c-1.9,0-4.9-0.3-6.5-1c0.2,1,0.3,1.9,0.5,3.1c2.8-0.2,6.3-0.5,7.9-2.3c1.4-1.6-1.2-1.7-1.2-3.3
		c0-1.9,3.7-1.9,2.3-4.5c-1-1.4-3,0-3.3-2.1c-0.5-3.5-2.1-6.5-5.1-7.5c-2.1-0.7-1.6-2.1-0.7-4.4c1-3-8.4-3.1-7.2-7.7
		c0,0,1.9-2.3-0.2-3.7C80,29.4,71.4,29.1,64,31.2L64,31.2z M70.3,34.5c1,0.5,2.1,1.2,3.1,1.9c0.2-0.2,0.3-0.2,0.5-0.3
		c1.4-0.7,4-1,6.1-1.4C76.3,33.6,74.2,33.1,70.3,34.5z M89.9,56.7c0.3,0.5,0.5,1,0.7,1.6c1.4,0,3,0.2,4.4,0.2
		C94.1,58.1,90.8,56.9,89.9,56.7z"/>
	<path id="path14" class="st0" d="M56,82.8l6.1,6.8l1-0.9l-5.4-5.9h0.9l7,5.4l0.9-1l-5.9-4.5l0.7-0.2l7,4.5l0.7-1l-5.4-3.7h0.7
		l5.9,2.8l0.5-1.2L66.9,82c1.7-0.2,3.7-0.2,5.4-0.3c-0.7,5.4-4.7,9.1-10.8,9.8c-2.3-3.3-4.5-6.1-7.2-8.6L56,82.8L56,82.8z"/>
</g>
<g>
	<path class="st1" d="M68.6,11.4c-1.4-0.4-2.8,0.4-3.2,1.7c-0.2,0.7-0.1,1.5,0.3,2.1L53,20.5L51.4,8.9c1.1,0,2.2-0.7,2.6-1.8
		c0.4-1.4-0.4-2.8-1.7-3.2s-2.8,0.4-3.2,1.7c-0.3,1.1,0.2,2.3,1.1,2.9l-7.7,8.9L34.6,5.9C35.2,5.6,35.7,5,36,4.3
		c0.4-1.4-0.4-2.8-1.7-3.2c-1.4-0.4-2.8,0.4-3.2,1.7c-0.4,1.4,0.4,2.8,1.7,3.2c0.2,0.1,0.4,0.1,0.7,0.1c0,0,0,0,0,0.1L34,25.8
		l-1-0.3c-0.3-0.1-0.6,0.1-0.7,0.4l-0.7,2.5c-0.1,0.3,0.1,0.6,0.4,0.7l23.3,7c0.3,0.1,0.6-0.1,0.7-0.4l0.7-2.5
		c0.1-0.3-0.1-0.6-0.4-0.7l-1-0.3l11.2-16.1c0,0,0,0,0-0.1c0.2,0.1,0.4,0.2,0.6,0.3c1.4,0.4,2.8-0.4,3.2-1.7
		C70.8,13.3,70,11.9,68.6,11.4z"/>
	<g id="XMLID_3_">
		<g>
			<path class="st2" d="M68.2,12.7c0.7,0.2,1,0.9,0.8,1.6s-0.9,1-1.6,0.8s-1-0.9-0.8-1.6C66.9,12.9,67.6,12.5,68.2,12.7z"/>
			<path class="st2" d="M51.8,5.1c0.7,0.2,1,0.9,0.8,1.5s-0.9,1-1.6,0.8s-1-0.9-0.8-1.6C50.4,5.3,51.1,4.9,51.8,5.1z"/>
			<path class="st2" d="M33.9,2.4c0.7,0.2,1,0.9,0.8,1.5c-0.2,0.7-0.9,1-1.6,0.8s-1-0.9-0.8-1.6S33.2,2.2,33.9,2.4z"/>
		</g>
	</g>
	<g id="XMLID_2_">
		<g>
			<polygon class="st3" points="55.3,33.5 55,34.8 32.8,28.2 33.2,26.9 			"/>
		</g>
	</g>
	<g id="XMLID_1_">
		<g>
			<path class="st4" d="M64.2,17.2L54,31.8l-18.8-5.7L34.8,8.4C34.9,8.6,42,19,42.2,19s8-8.8,8-8.8S51.9,21.9,52,22
				C52.3,22.1,64.2,17.2,64.2,17.2z"/>
		</g>
	</g>
</g>
</svg>
