<svg xmlns="http://www.w3.org/2000/svg" width="94.57" height="83" viewBox="0 0 94.57 83">
<defs>
    <style>
      .cls-1 {
        fill: #0160ac;
        fill-rule: evenodd;
      }
    </style>
  </defs>
  <path class="cls-1" d="M1683.97,3289.37c-4.88,0-12.52,2.93-16.17,7.12-4.95-4.33-15.67-8.01-25.54-10.39-3.6-5.42-3.91-9.6-3.58-12.08a2.052,2.052,0,0,0-.63-1.78,2.026,2.026,0,0,0-1.82-.51c-6.44,1.29-9.98,6.98-11.83,11.53-0.08,0-.18-0.01-0.25-0.01-9.98,0-24.38,8.09-24.38,18.07s14.4,18.07,24.38,18.07c0.33,0,.7-0.01,1.09-0.02a25.083,25.083,0,0,0,10.92,3.13c3.81,0,1.95-1.79-.31-4.57,11.21-2.15,25.9-6.48,31.95-11.78,3.65,4.19,11.29,7.13,16.17,7.13,6.6,0-3.81-5.36-3.81-11.96S1690.57,3289.37,1683.97,3289.37Zm-73.03,12.16a2.76,2.76,0,1,1,2.76-2.76A2.766,2.766,0,0,1,1610.94,3301.53ZM1595,3285.24a3.415,3.415,0,1,0,3.42,3.42A3.416,3.416,0,0,0,1595,3285.24Zm7.38-10.77a2.61,2.61,0,1,0,2.61,2.61A2.612,2.612,0,0,0,1602.38,3274.47Zm-4.88-9.72a4.6,4.6,0,1,0-4.59-4.6A4.6,4.6,0,0,0,1597.5,3264.75Zm7.24-19.97a2.64,2.64,0,1,0-2.64-2.64A2.637,2.637,0,0,0,1604.74,3244.78Z" transform="translate(-1591.59 -3239.5)"/>
</svg>
