<svg xmlns="http://www.w3.org/2000/svg" width="16.25" height="16" viewBox="0 0 16.25 16">
<defs>
    <style>
      .cls-1 {
        fill: #fff;
        fill-rule: evenodd;
      }
    </style>
  </defs>
  <path class="cls-1" d="M1579.59,15.933a1.867,1.867,0,1,0-1.86-1.867A1.863,1.863,0,0,0,1579.59,15.933Zm0-3.2a1.334,1.334,0,1,1-1.33,1.334A1.329,1.329,0,0,1,1579.59,12.733Zm5.13,6.134h-1.9l0.81-1.174a5.845,5.845,0,0,0-.48-7.2,5.087,5.087,0,0,0-7.21,0,5.834,5.834,0,0,0-.48,7.188l0.81,1.182h-1.99L1571.36,25h16.27Zm-8.83-1.494a5.291,5.291,0,0,1,.42-6.5,4.571,4.571,0,0,1,6.47,0,5.273,5.273,0,0,1,.41,6.507l-3.64,5.284-2.63-3.8h0Zm-1.28,2.027h2.03l2.91,4.2,2.9-4.2h1.93l2.41,5.067h-14.58Z" transform="translate(-1571.38 -9)"/>
</svg>
