<svg xmlns="http://www.w3.org/2000/svg" width="80.004" height="65.25" viewBox="0 0 80.004 65.25">
  <metadata><?xpacket begin="﻿" id="W5M0MpCehiHzreSzNTczkc9d"?>
<x:xmpmeta xmlns:x="adobe:ns:meta/" x:xmptk="Adobe XMP Core 5.6-c138 79.159824, 2016/09/14-01:09:01        ">
   <rdf:RDF xmlns:rdf="http://www.w3.org/1999/02/22-rdf-syntax-ns#">
      <rdf:Description rdf:about=""/>
   </rdf:RDF>
</x:xmpmeta>
                                                                                                    
                                                                                                    
                                                                                                    
                                                                                                    
                                                                                                    
                                                                                                    
                                                                                                    
                                                                                                    
                                                                                                    
                                                                                                    
                                                                                                    
                                                                                                    
                                                                                                    
                                                                                                    
                                                                                                    
                                                                                                    
                                                                                                    
                                                                                                    
                                                                                                    
                                                                                                    
                           
<?xpacket end="w"?></metadata>
<defs>
    <style>
      .cls-1 {
        fill: #de0914;
        fill-rule: evenodd;
      }
    </style>
  </defs>
  <path id="payment" class="cls-1" d="M964.809,1117.65h21.327a1.257,1.257,0,0,0,1.333-1.33v-11.99a1.257,1.257,0,0,0-1.333-1.33H964.809a1.257,1.257,0,0,0-1.333,1.33v11.99A1.257,1.257,0,0,0,964.809,1117.65Zm1.333-11.98H984.8v9.32H966.142v-9.32Zm-37.322-5.33h10.663a1.335,1.335,0,0,0,0-2.67H928.82A1.335,1.335,0,0,0,928.82,1100.34Zm16,0h10.664a1.335,1.335,0,0,0,0-2.67H944.815A1.335,1.335,0,0,0,944.815,1100.34Zm-16,5.33h17.328a1.335,1.335,0,0,0,0-2.67H928.82A1.335,1.335,0,0,0,928.82,1105.67Zm26.658-2.67h-4a1.335,1.335,0,0,0,0,2.67h4A1.335,1.335,0,0,0,955.478,1103Zm45.452-16.52a4.981,4.981,0,0,0-3.6-2l-3.2-.38v-6.41a5.347,5.347,0,0,0-5.332-5.33H927.487a5.347,5.347,0,0,0-5.332,5.33v42.63a5.353,5.353,0,0,0,3.819,5.11,5.188,5.188,0,0,0,4.712,5.28l61.582,6.93H992.8a5.338,5.338,0,0,0,5.332-4.53l4-42.76A5.172,5.172,0,0,0,1000.93,1086.48Zm-76.109-4.79h66.647v7.99H924.821v-7.99Zm2.666-6.66H988.8a2.673,2.673,0,0,1,2.666,2.66v1.33H924.821v-1.33A2.672,2.672,0,0,1,927.487,1075.03Zm-2.666,45.29v-27.98h66.647v27.98a2.673,2.673,0,0,1-2.666,2.66H927.487A2.672,2.672,0,0,1,924.821,1120.32Zm74.645-30.51-4,42.76a2.682,2.682,0,0,1-2.933,2.4l-61.449-6.92a2.7,2.7,0,0,1-2.4-2.4H988.8a5.348,5.348,0,0,0,5.332-5.33v-33.7l3.066,0.26a2.284,2.284,0,0,1,1.732.93A2.719,2.719,0,0,1,999.466,1089.81Z" transform="translate(-922.156 -1072.38)"/>
</svg>
