<?xml version="1.0" encoding="utf-8"?>
<!-- Generator: Adobe Illustrator 19.2.1, SVG Export Plug-In . SVG Version: 6.00 Build 0)  -->
<svg version="1.1" id="Capa_1" xmlns="http://www.w3.org/2000/svg" xmlns:xlink="http://www.w3.org/1999/xlink" x="0px" y="0px"
	 viewBox="0 0 30 30" style="enable-background:new 0 0 30 30;" xml:space="preserve">
<style type="text/css">
	.st0{fill:#FEE61A;stroke:#D1B92C;stroke-miterlimit:10;}
	.st1{fill:#DDC72C;}
</style>
<g>
	<path class="st0" d="M28.6,14c0.6,0.5,0.6,1.3,0.2,1.9c0,0.1-0.1,0.1-0.2,0.2h0c-0.5,0.4-0.6,1.2-0.3,1.8c0.4,0.6,0.2,1.5-0.4,1.9
		c-0.1,0-0.1,0.1-0.2,0.1c-0.5,0.2-0.8,0.7-0.8,1.2c0,0.1,0,0.3,0.1,0.4v0c0.2,0.7-0.2,1.5-0.9,1.7c-0.1,0-0.2,0-0.2,0.1h0
		c-0.7,0.1-1.2,0.7-1.2,1.4v0c0,0.7-0.6,1.4-1.3,1.4c-0.1,0-0.2,0-0.2,0c-0.1,0-0.1,0-0.2,0c-0.6,0-1.2,0.4-1.3,1
		c-0.2,0.6-0.7,1-1.3,1c-0.2,0-0.4,0-0.6-0.1c-0.2-0.1-0.4-0.1-0.6-0.1c-0.5,0-0.9,0.2-1.2,0.6v0c-0.4,0.6-1.2,0.8-1.9,0.4
		c-0.1,0-0.1-0.1-0.2-0.1c-0.5-0.5-1.3-0.5-1.8,0c-0.6,0.5-1.4,0.5-1.9-0.1c-0.1-0.1-0.1-0.1-0.1-0.2v0c-0.4-0.6-1.1-0.8-1.7-0.5h0
		c-0.7,0.3-1.5,0-1.8-0.6c0-0.1-0.1-0.2-0.1-0.2c-0.2-0.6-0.7-1-1.3-1c-0.1,0-0.1,0-0.2,0c-0.1,0-0.1,0-0.2,0
		c-0.8,0-1.4-0.6-1.4-1.4c0,0,0,0,0,0v0c0-0.7-0.5-1.3-1.2-1.4h0c-0.7-0.1-1.3-0.8-1.2-1.5c0-0.1,0-0.2,0.1-0.2v0
		c0.2-0.7-0.1-1.4-0.8-1.6c-0.7-0.3-1-1.1-0.7-1.8c0-0.1,0.1-0.1,0.1-0.2C2,17.3,1.9,16.5,1.4,16h0c-0.6-0.5-0.6-1.3-0.2-1.9
		c0-0.1,0.1-0.1,0.2-0.2l0,0c0.5-0.4,0.6-1.2,0.3-1.8v0c-0.4-0.6-0.2-1.5,0.4-1.9c0.1,0,0.1-0.1,0.2-0.1C2.7,9.9,3,9.5,3,8.9
		C3,8.8,3,8.6,3,8.5c0-0.1-0.1-0.3-0.1-0.4c0-0.7,0.5-1.3,1.2-1.3c0.7-0.1,1.2-0.7,1.2-1.3V5.4C5.3,4.6,5.9,4,6.6,4
		c0.1,0,0.1,0,0.2,0C6.9,4,7,4,7.1,4c0.6,0,1.1-0.4,1.3-1c0.2-0.6,0.7-1,1.3-1c0.2,0,0.4,0,0.6,0.1v0c0.6,0.3,1.4,0.1,1.7-0.5
		C12.3,1.3,12.7,1,13.2,1c0.3,0,0.7,0.1,0.9,0.3c0.5,0.5,1.3,0.5,1.8,0C16.2,1.1,16.5,1,16.8,1c0.5,0,0.9,0.2,1.2,0.6
		c0.2,0.4,0.7,0.6,1.2,0.6c0.2,0,0.4,0,0.6-0.1l0,0c0.7-0.3,1.5,0,1.8,0.6c0,0.1,0.1,0.1,0.1,0.2c0.2,0.6,0.7,1,1.3,1
		c0.1,0,0.1,0,0.2,0c0.1,0,0.1,0,0.2,0c0.8,0,1.4,0.6,1.4,1.4c0,0,0,0,0,0v0c0,0.7,0.5,1.3,1.2,1.4h0c0.7,0.1,1.3,0.8,1.2,1.5
		c0,0.1,0,0.2-0.1,0.2C27,8.6,27,8.8,27,8.9c0,0.5,0.3,1,0.8,1.3c0.7,0.3,1,1.1,0.7,1.8c0,0.1-0.1,0.1-0.1,0.2
		C28,12.7,28.1,13.5,28.6,14L28.6,14z M25.7,15.1c0-5.9-4.8-10.7-10.7-10.7S4.4,9.2,4.4,15.1s4.8,10.7,10.7,10.7S25.7,21,25.7,15.1z
		"/>
</g>
<path class="st1" d="M15.1,4.4c5.9,0,10.7,4.8,10.7,10.7S21,25.7,15.1,25.7S4.4,21,4.4,15.1S9.2,4.4,15.1,4.4z"/>
</svg>
