<svg xmlns="http://www.w3.org/2000/svg" width="40" height="40" viewBox="0 0 40 40"><defs><style>.cls-1{fill:#de0914;fill-rule:evenodd}</style></defs><path class="cls-1" d="M40 20A20 20 0 0 0 6.16 5.566 1.185 1.185 0 1 0 7.8 7.277a17.626 17.626 0 1 1-.39 25.066c.02-.085.05-.169.07-.252a1.44 1.44 0 0 1 .05-.2l.09-.3c.02-.059.03-.119.05-.178l.12-.34c.01-.043.03-.086.04-.129q.18-.465.39-.909l.06-.131c.05-.1.1-.205.16-.306a1.173 1.173 0 0 0 .08-.158l.15-.268c.04-.056.07-.112.11-.168l.15-.246a1.629 1.629 0 0 1 .11-.17c.05-.077.1-.155.16-.231l.12-.17c.06-.073.11-.147.16-.219.05-.056.09-.111.14-.167a2.671 2.671 0 0 1 .17-.208 2.038 2.038 0 0 1 .14-.164c.06-.066.11-.133.17-.2l.15-.159.18-.189c.06-.062.11-.1.16-.153s.13-.121.19-.18.11-.1.16-.147c.07-.058.13-.115.2-.171.05-.048.11-.1.17-.142s.13-.108.2-.162l.18-.134q.105-.078.21-.153l.18-.128.21-.143c.06-.04.13-.081.19-.12s.15-.09.22-.134.13-.076.19-.113c.08-.043.15-.084.23-.125s.13-.07.2-.105.15-.077.23-.115.13-.065.2-.1.16-.071.24-.106.14-.06.21-.088.16-.065.24-.1.14-.054.21-.079.16-.058.25-.086l.21-.07c.08-.026.17-.051.26-.075.07-.021.14-.042.21-.061.09-.024.18-.045.26-.066l.22-.051c.09-.02.18-.037.27-.055l.21-.042.28-.044.21-.032c.1-.013.2-.023.3-.033.07-.007.13-.016.2-.021.11-.01.22-.016.34-.023l.16-.011c.17-.007.34-.011.51-.011h2.92a11.4 11.4 0 0 1 8.82 4.166 1.185 1.185 0 1 0 1.83-1.507 13.779 13.779 0 0 0-7.09-4.565 7.57 7.57 0 1 0-10.04 0c-.03.01-.07.02-.11.031-.16.045-.33.092-.49.143l-.06.018c-.17.057-.35.119-.53.183-.05.02-.11.042-.16.063-.12.046-.24.093-.36.142-.07.028-.13.057-.2.085-.11.046-.21.093-.32.141a2.33 2.33 0 0 0-.2.1c-.11.049-.21.1-.31.15-.06.035-.13.07-.2.106-.1.053-.2.108-.3.164-.06.037-.12.072-.19.11-.1.061-.2.124-.31.188-.05.035-.11.068-.16.1-.13.082-.26.166-.38.252l-.09.058c-.15.107-.3.216-.44.329a1.3 1.3 0 0 0-.13.1c-.11.081-.21.162-.31.247-.05.044-.11.09-.16.136-.09.075-.18.151-.26.229-.06.05-.11.1-.17.152q-.12.114-.24.231c-.05.053-.11.107-.16.161q-.12.12-.24.243l-.15.162c-.08.088-.16.177-.23.266-.05.051-.09.1-.14.154q-.135.164-.27.332a.773.773 0 0 1-.08.1c-.11.147-.22.3-.33.448l-.09.123c-.07.113-.15.226-.23.341a1.705 1.705 0 0 1-.11.177l-.18.3-.12.2c-.05.1-.11.2-.16.3a1.958 1.958 0 0 0-.11.206c-.06.1-.11.2-.16.3a2.071 2.071 0 0 1-.1.208c-.05.107-.09.216-.14.326l-.09.2-.15.386-.06.147a.021.021 0 0 1-.01.021 17.583 17.583 0 0 1-3.22-10.163 1.185 1.185 0 1 0-2.37 0 20 20 0 0 0 34.74 13.51h.01A19.98 19.98 0 0 0 40 20zm-20-9.264a5.2 5.2 0 1 1-5.2 5.2 5.205 5.205 0 0 1 5.2-5.2z"/></svg>