<svg xmlns="http://www.w3.org/2000/svg" width="19.32" height="20" viewBox="0 0 19.32 20"><defs><style>.cls-1{fill:#fff;fill-rule:evenodd}</style></defs><path id="buy_1" class="cls-1" d="M1401.48 844.745v4.569h-13.96v-4.569h-2.69v5.912a1.343 1.343 0 0 0 1.35 1.342h16.64a1.343 1.343 0 0 0 1.35-1.342v-5.912h-2.69zm-7.23-.453l-3.84-4.647s-.58-.552.05-.552h2.17v-6.764s-.09-.33.41-.33h3.04a.293.293 0 0 1 .35.278v6.676h2c.77 0 .19.579.19.579s-3.27 4.343-3.72 4.8a.435.435 0 0 1-.65-.04z" transform="translate(-1384.84 -832)"/></svg>