<svg xmlns="http://www.w3.org/2000/svg" width="14" height="14" viewBox="0 0 14 14"><defs><style>.cls-1{fill:#333;fill-rule:evenodd}</style></defs><path id="calendar" class="cls-1" d="M1308.64 2424h-12.28a.864.864 0 0 1-.86-.88v-10.79a.862.862 0 0 1 .86-.87h12.28a.862.862 0 0 1 .86.87v10.79a.864.864 0 0 1-.86.88zm-12.28-11.96a.29.29 0 0 0-.29.29v10.79a.293.293 0 0 0 .29.3h12.28a.293.293 0 0 0 .29-.3v-10.79a.29.29 0 0 0-.29-.29h-12.28zm2.85 1.17a.288.288 0 0 1-.28-.29v-2.63a.285.285 0 1 1 .57 0v2.63a.29.29 0 0 1-.29.29zm6.29 0a.29.29 0 0 1-.29-.29v-2.63a.29.29 0 0 1 .58 0v2.63a.29.29 0 0 1-.29.29zm-3.14 0a.29.29 0 0 1-.29-.29v-2.63a.285.285 0 1 1 .57 0v2.63a.288.288 0 0 1-.28.29zm-3.43 2.91h-1.72v-1.75h1.72v1.75zm-1.14-.58h.57v-.58h-.57v.58zm4 .58h-1.72v-1.75h1.72v1.75zm-1.15-.58h.57v-.58h-.57v.58zm4 .58h-1.71v-1.75h1.71v1.75zm-1.14-.58h.57v-.58h-.57v.58zm4 .58h-1.71v-1.75h1.71v1.75zm-1.14-.58h.57v-.58h-.57v.58zm-7.43 3.5h-1.72v-1.75h1.72v1.75zm-1.14-.58h.57v-.59h-.57v.59zm4 .58h-1.72v-1.75h1.72v1.75zm-1.15-.58h.57v-.59h-.57v.59zm4 .58h-1.71v-1.75h1.71v1.75zm-1.14-.58h.57v-.59h-.57v.59zm4 .58h-1.71v-1.75h1.71v1.75zm-1.14-.58h.57v-.59h-.57v.59zm-7.43 3.5h-1.72v-1.75h1.72v1.75zm-1.14-.59h.57v-.58h-.57v.58zm4 .59h-1.72v-1.75h1.72v1.75zm-1.15-.59h.57v-.58h-.57v.58zm4 .59h-1.71v-1.75h1.71v1.75zm-1.14-.59h.57v-.58h-.57v.58zm4 .59h-1.71v-1.75h1.71v1.75zm-1.14-.59h.57v-.58h-.57v.58z" transform="translate(-1295.5 -2410)"/></svg>