<svg xmlns="http://www.w3.org/2000/svg" width="79.969" height="60.25" viewBox="0 0 79.969 60.25"><defs><style>.cls-1{fill:#de0914;fill-rule:evenodd}</style></defs><path class="cls-1" d="M36.425 21.53a1.1 1.1 0 0 0-.068-.17 1.545 1.545 0 0 0-.135-.21l-5.548-7.36a1.255 1.255 0 0 0-1.764-.25 1.242 1.242 0 0 0-.253 1.75l4.051 5.38H16.681a1.255 1.255 0 1 0 0 2.51h16.024l-4.051 5.37a1.26 1.26 0 0 0 2.017 1.51l5.548-7.36a2.046 2.046 0 0 0 .134-.21 1.1 1.1 0 0 0 .07-.17 1.25 1.25 0 0 0 .064-.4 1.235 1.235 0 0 0-.064-.39zm43.47 20.53l-5.826-23.2a5.041 5.041 0 0 0-4.892-3.8H52.94V3.77A3.78 3.78 0 0 0 49.158 0H3.773A3.78 3.78 0 0 0-.01 3.77v37.64a3.78 3.78 0 0 0 3.783 3.77h7.7a8.716 8.716 0 0 0-2.655 6.27 8.825 8.825 0 0 0 17.65 0 8.715 8.715 0 0 0-2.654-6.27h34.3a8.715 8.715 0 0 0-2.654 6.27 8.825 8.825 0 0 0 17.649 0 8.715 8.715 0 0 0-2.654-6.27h6.989a2.515 2.515 0 0 0 2.448-3.12zM69.177 17.57a2.514 2.514 0 0 1 2.446 1.9l2.155 8.58H52.94V17.57h16.234zm-45.23 33.88a6.3 6.3 0 1 1-6.3-6.27 6.3 6.3 0 0 1 6.297 6.27zm26.475-8.78H3.773a1.258 1.258 0 0 1-1.261-1.26V3.77a1.265 1.265 0 0 1 1.261-1.26h45.385a1.265 1.265 0 0 1 1.261 1.26v38.9zm20.171 8.78a6.3 6.3 0 1 1-6.3-6.27 6.3 6.3 0 0 1 6.297 6.27zm-17.65-8.78V30.56h21.466l3.04 12.11H52.94zm-2.521 6.27H30.247a1.255 1.255 0 1 0 0 2.51h20.172a1.255 1.255 0 1 0 0-2.51z"/></svg>