<svg xmlns="http://www.w3.org/2000/svg" width="59.688" height="40.03" viewBox="0 0 59.688 40.03"><defs><style>.cls-1{fill:#de0914;fill-rule:evenodd}</style></defs><path class="cls-1" d="M34.609.01H-.009v22.65h34.618V.01zM13.175 14.66a.356.356 0 0 1-.022.15.1.1 0 0 1-.121.07.025.025 0 0 1-.024-.01.336.336 0 0 1-.125-.09l-2.874-2.89a.694.694 0 0 1-.125-.22v-.18a.977.977 0 0 1 .29-.37l.938-.95 1.772-1.79a.4.4 0 0 1 .1-.08.109.109 0 0 1 .157.02.122.122 0 0 1 .022.05.477.477 0 0 1 .013.13v6.16zm7.83 1.8a.236.236 0 0 1-.075.1c-.955.97-1.91 1.93-2.866 2.9a.659.659 0 0 1-.227.13h-.112v-.01a.784.784 0 0 1-.336-.24c-.744-.75-1.489-1.51-2.235-2.26-.172-.17-.343-.35-.515-.52l-.01-.01a.191.191 0 0 1-.064-.19.167.167 0 0 1 .172-.08h1.186a.392.392 0 0 0 .439-.35.482.482 0 0 0 0-.1v-2.25a.4.4 0 0 1 .38-.42h2.133a.391.391 0 0 1 .4.37.258.258 0 0 1 0 .04v2.26a.429.429 0 0 0 .056.25.361.361 0 0 0 .342.2h1.1a.723.723 0 0 1 .147.02.12.12 0 0 1 .083.14.023.023 0 0 1-.002.02zm.056-9.55a.092.092 0 0 1-.079.04c-.035 0-.071.01-.107.01h-1.173a.384.384 0 0 0-.411.36v2.19a.393.393 0 0 1-.357.43.1.1 0 0 1-.077 0h-2.082a.389.389 0 0 1-.424-.36V7.4a.431.431 0 0 0-.393-.45h-.045c-.407.02-.813 0-1.219 0a.209.209 0 0 1-.134-.02.107.107 0 0 1-.082-.13.13.13 0 0 1 .013-.03.325.325 0 0 1 .071-.1l2.93-2.96a.472.472 0 0 1 .214-.12h.162a.751.751 0 0 1 .274.19c.943.96 1.888 1.91 2.834 2.87a.48.48 0 0 1 .083.1.112.112 0 0 1-.002.16zm4.418 5.06c-.584.58-1.166 1.17-1.747 1.76l-.979.99a.176.176 0 0 1-.2.08.166.166 0 0 1-.086-.18V8.61a.528.528 0 0 1 .02-.18.1.1 0 0 1 .128-.08.051.051 0 0 1 .038.01.387.387 0 0 1 .1.08l2.82 2.85a.567.567 0 0 1 .122.22v.14a.81.81 0 0 1-.22.32zm34.2 12.85h-.736V19.1a1.776 1.776 0 0 0-.015-.23L57.392 7.83a1.658 1.658 0 0 0-1.64-1.44H38.735a1.665 1.665 0 0 0-1.655 1.67v16.76H-.009v6.64h6.184a6.752 6.752 0 0 0 0 3.76 6.586 6.586 0 0 0 8.187 4.52 6.684 6.684 0 0 0 4.472-8.28h24.6a6.762 6.762 0 0 0 0 3.62 6.587 6.587 0 0 0 8.136 4.61 6.682 6.682 0 0 0 4.563-8.23h3.55v-6.64zM12.514 36.58a3.245 3.245 0 1 1 3.2-3.24 3.231 3.231 0 0 1-3.2 3.24zm37.27-.07a3.245 3.245 0 1 1 3.2-3.25 3.239 3.239 0 0 1-3.2 3.25zM45.52 18.28l-5.126-5.18V9.73h13.924l1.186 8.55H45.52z"/></svg>