<svg xmlns="http://www.w3.org/2000/svg" width="132" height="117" viewBox="0 0 132 117"><defs><style>.cls-1{fill:#0160ac;fill-rule:evenodd;filter:url(#filter)}</style><filter id="filter" x="93" y="1253" width="132" height="117" filterUnits="userSpaceOnUse"><feOffset result="offset" dx="2.5" dy="4.33" in="SourceAlpha"/><feGaussianBlur result="blur" stdDeviation="3"/><feFlood result="flood" flood-color="#010101" flood-opacity=".14"/><feComposite result="composite" operator="in" in2="blur"/><feBlend result="blend" in="SourceGraphic"/><feFlood result="flood-2" flood-color="#fdc224"/><feComposite result="composite-2" operator="in" in2="SourceGraphic"/><feBlend result="blend-2" in2="blend"/></filter></defs><path class="cls-1" d="M117.2 64.08c-5.882 0-15.084 3.53-19.483 8.59-5.956-5.23-18.872-9.66-30.772-12.52-4.328-6.53-4.705-11.57-4.3-14.56a2.483 2.483 0 0 0-2.955-2.76c-7.761 1.56-12.028 8.41-14.257 13.89-.1 0-.21-.01-.3-.01-12.024 0-29.367 9.75-29.367 21.77s17.343 21.78 29.367 21.78c.4 0 .842-.02 1.313-.04A30.239 30.239 0 0 0 59.6 104c4.594 0 2.346-2.16-.369-5.51 13.5-2.59 31.2-7.8 38.487-14.19 4.4 5.05 13.6 8.58 19.483 8.58 7.952 0-4.59-6.44-4.59-14.4s12.544-14.4 4.589-14.4zM29.215 78.73a3.32 3.32 0 1 1 3.323-3.32 3.317 3.317 0 0 1-3.32 3.32zm-19.2-19.62a4.115 4.115 0 1 0 4.115 4.11 4.112 4.112 0 0 0-4.11-4.11zm8.887-12.98a3.145 3.145 0 1 0 3.141 3.15 3.145 3.145 0 0 0-3.136-3.15zm-5.879-11.71a5.54 5.54 0 1 0-5.537-5.54 5.539 5.539 0 0 0 5.542 5.54zm8.724-24.05a3.185 3.185 0 1 0-3.185-3.19 3.187 3.187 0 0 0 3.19 3.19z"/></svg>