<svg id="svg2" image-rendering="optimizeQuality" text-rendering="geometricPrecision" shape-rendering="geometricPrecision" xmlns="http://www.w3.org/2000/svg" viewBox="0 0 110 126"><style>.st0{fill:#1162ab}.st1{fill:#eaab3b}.st2{fill:#e8e83d}.st3{fill:#e8d83d}.st4{fill:#eff419}</style><g id="g8"><path class="st0" d="M54.2 61.6c-2.8-.7-6.1-.7-9.1-.7 1.9.7 4.3 1.4 5.9 1.2l.3 1.2c-3.4.7-9-2.1-9.3-2.4l-1.9.2.3.7c2.1.9 8.4 3.2 12.1 2.6l.2 1.4c-3.8.6-9.9-2.1-12.2-3.1 0 .2-.1.4-.3.7 2.6 1 8.9 3.6 10.5 3.3l.3 1.2c-2.1.7-9.6-2.6-11.9-3.5l-.3.2c4.7 2.8 12.4 5.4 18 4.2-2.8-1.6-5.4-4.2-2.6-7.2zM24.5 41.3c.9.7 1.9.2 2.6-.7.6-.7.7-2.1-.2-2.6-.9-.7-2.1-.2-2.6.5-.7.9-.8 2.1.2 2.8z"/><path class="st0" d="M30.1 37.6c-1.1-.7-2.1-1-3-1 2 .7 2.3 3.2 1.1 4.9-1.3 1.5-3.7 2-5.1.3.4 1 1.1 1.9 2.1 2.6 1.9 1.4 5 1.8 6.6-.3 1.4-2.1.2-5.1-1.7-6.5zm32.1 6c-.1.1-.1.3-.3.3-.2.1-.3.1-.5.3-.7.5-1.8.9-2.8 1.2 2.3 1.5 3 3.1 2.8 4.5 5.6-1.2 6-4.4.8-6.3z"/><path class="st0" d="M93.2 82.9c0-68.9-77.7-55.1-81.4-58.3-4-3.3-10 2.8-7.7 7.9.3.3.5.6.8 1-2.8-2-8.6 5.6.5 10.5 3.7 2.1 2.4 7.3 6.3 12.4C22 69.9 47 50.8 46.9 39.1c1.4 12.6-17.7 25-27.1 23.1 5.8 12.2 18.4 18.4 32 19.2 12.4.7 24.8-4.7 36 3-8 5.4-9.4 11.5-6.8 20.5 5.6-2.3 7.7-2.6 11.9-7 7 4.2 13.8-.9 16.4-.3-1.2-5.9-11.5-12.9-16.1-14.7zM24.3 45.5c-2.4-1.9-4-5.6-1.9-8.4 3-4.2 10-1.2 11.3 3.5 1.1 5.8-5 8-9.4 4.9zm11.8 18.4c4-.9 3.8-1.6 1.2-4 6.7-.4 13.1-.9 19.6 1.2-5.6 4.2-.9 6.1 3.3 7.7-8.5 3.7-17.1.3-24.1-4.9zm43.5 4.3l-1-.9s2.4-3.2.7-6.3c-1.4 2.9-4 2.9-6.3 2.4-.5.3-1.2.7-1.9 1l-.5-1.2c3.3-1.4 5.2-4.6 1.7-7-2.4 1-5.2 0-7.5-.7 2.3-2.4 1.4-2.8 0-5.4-1.6.9-3.3 1.2-4 1.4-1 1.4-2.9 2.7-5.2 3.7l-.5-1.2c7.3-3.4 6.1-5.6-.2-9.3 4.6-.7 10.7-2.5 5.1-7.2l.7-.9c1.7 1.4 3.6 3.6 2.4 5.9 3 1.4 5.6 4 3 6.6 3.7 3.1 4.9-2.1 6.5-4.9 1.4 2.8 2.9 6.5 1.9 9.6 1.2.2 2.2.6 3.1.9.3-.3.8-1 .5-1.7l1.2-.7c.5 1.4-.2 2.6-.7 3.3 1 1 1.3 2.4 1 4 3.5 3.9 0 8.6 0 8.6zM98.8 93c-.3-1.2-3.5-3.8-4.5-4.7l-.5.5c.9.7 2.5 2.5 2.8 3.7l-1.2.2c-.3-.8-1.9-2.4-2.6-3.1-.2.1-.3.3-.5.3 1.4 1.6 1.9 3 2.4 4.9l-.9 1c-.6-.5-.9-3.5-3-5.2-.2 0-.3.2-.5.2.3.7.6 1.9.3 3.3l-1.4-.2c.3-1.4 0-2.5-.2-3-.6 0-1.1 0-1.6-.2 0 0-.3 2.3-.3 2.6h-1.4c.6-2.3.4-2.3 1.2-4.2 2.8 1.4 5.5-.9 7.2-2.6 1.5 1.2 5.6 4.4 5.9 6.3l-1.2.2z"/><path class="st0" d="M67 51.3c.7 1.2 1.1 2.3.2 3.5 6.2 1.9 7.5-2.1 5.2-7.7-.8 1.9-2.4 5.4-5.4 4.2zm6.8 3.8c-.1.1-.1.3-.3.3 2.5 1.9 2.8 4.5.9 6.8 4.7 1 6.8-6.9-.6-7.1z"/><path id="path12" class="st0" d="M64 31.2c1.6.7 3.3 1.6 4.9 2.4 8.2-3.3 10.7 1 14.7.7l.2 1.4c-.2 0-6.6.3-9.1 1.6.3.2.5.3.9.7 3.3-.5 8-.5 8-.5l.2 1.4s-3.8-.2-6.8.2c.3.3.7.7 1 .9 3.3.2 7.5.9 7.5.9l-.2 1.4s-3-.5-5.8-.9l2.1 2.1c3-.3 9.3.9 9.3.9l-.2 1.2s-5.1-.9-8-.7c.3.3.5.7.9 1 3.1.2 7.7 1.2 7.7 1.2l-.3 1.4s-3.3-.9-6.3-1.2c.3.3.5.7.9 1.2h.2c2.8.2 9.3 3.3 9.3 3.3l-.7 1.2s-4.9-2.4-7.9-3.1c.7 1 1.2 1.9 1.7 3 3 0 9.3 2.1 9.3 2.1l-.3 1.4c0-.2-5.2-1.7-8.2-2.1l.5 1c3.1.2 7.2 2.4 10.1 4l-.7 1c-1.2-.5-6.3-.7-7.7-.7l.3 1c3.2.9 7.5 2.4 7.5 2.4l-.5 1.2S94.8 63 92 62.3c.2.7.3 1.6.5 2.4 1.9 1 4.9 1.4 7 1.4v1.4c-1.9 0-4.9-.3-6.5-1 .2 1 .3 1.9.5 3.1 2.8-.2 6.3-.5 7.9-2.3 1.4-1.6-1.2-1.7-1.2-3.3 0-1.9 3.7-1.9 2.3-4.5-1-1.4-3 0-3.3-2.1-.5-3.5-2.1-6.5-5.1-7.5-2.1-.7-1.6-2.1-.7-4.4 1-3-8.4-3.1-7.2-7.7 0 0 1.9-2.3-.2-3.7-6-4.7-14.6-5-22-2.9zm6.3 3.3c1 .5 2.1 1.2 3.1 1.9.2-.2.3-.2.5-.3 1.4-.7 4-1 6.1-1.4-3.7-1.1-5.8-1.6-9.7-.2zm19.6 22.2c.3.5.5 1 .7 1.6 1.4 0 3 .2 4.4.2-.9-.4-4.2-1.6-5.1-1.8z"/><path id="path14" class="st0" d="M56 82.8l6.1 6.8 1-.9-5.4-5.9h.9l7 5.4.9-1-5.9-4.5.7-.2 7 4.5.7-1-5.4-3.7h.7l5.9 2.8.5-1.2-3.8-1.9c1.7-.2 3.7-.2 5.4-.3-.7 5.4-4.7 9.1-10.8 9.8-2.3-3.3-4.5-6.1-7.2-8.6H56v-.1z"/></g><path class="st1" d="M68.6 11.4c-1.4-.4-2.8.4-3.2 1.7-.2.7-.1 1.5.3 2.1L53 20.5 51.4 8.9c1.1 0 2.2-.7 2.6-1.8.4-1.4-.4-2.8-1.7-3.2s-2.8.4-3.2 1.7c-.3 1.1.2 2.3 1.1 2.9l-7.7 8.9-7.9-11.5c.6-.3 1.1-.9 1.4-1.6.4-1.4-.4-2.8-1.7-3.2-1.4-.4-2.8.4-3.2 1.7-.4 1.4.4 2.8 1.7 3.2.2.1.4.1.7.1v.1l.5 19.6-1-.3c-.3-.1-.6.1-.7.4l-.7 2.5c-.1.3.1.6.4.7l23.3 7c.3.1.6-.1.7-.4l.7-2.5c.1-.3-.1-.6-.4-.7l-1-.3 11.2-16.1V16l.6.3c1.4.4 2.8-.4 3.2-1.7.5-1.3-.3-2.7-1.7-3.2z"/><path class="st2" d="M68.2 12.7c.7.2 1 .9.8 1.6s-.9 1-1.6.8-1-.9-.8-1.6c.3-.6 1-1 1.6-.8zM51.8 5.1c.7.2 1 .9.8 1.5s-.9 1-1.6.8-1-.9-.8-1.6c.2-.5.9-.9 1.6-.7zM33.9 2.4c.7.2 1 .9.8 1.5-.2.7-.9 1-1.6.8s-1-.9-.8-1.6.9-.9 1.6-.7z" id="XMLID_3_"/><path class="st3" d="M55.3 33.5l-.3 1.3-22.2-6.6.4-1.3z" id="XMLID_2_"/><path class="st4" d="M64.2 17.2L54 31.8l-18.8-5.7-.4-17.7c.1.2 7.2 10.6 7.4 10.6s8-8.8 8-8.8S51.9 21.9 52 22c.3.1 12.2-4.8 12.2-4.8z" id="XMLID_1_"/></svg>