<svg xmlns="http://www.w3.org/2000/svg" width="94.57" height="83" viewBox="0 0 94.57 83"><defs><style>.cls-1{fill:#1162ab;fill-rule:evenodd}</style></defs><path class="cls-1" d="M92.38 49.87c-4.88 0-12.52 2.93-16.17 7.12-4.95-4.33-15.67-8.01-25.54-10.39-3.6-5.42-3.91-9.6-3.58-12.08a2.052 2.052 0 0 0-.63-1.78 2.026 2.026 0 0 0-1.82-.51c-6.44 1.29-9.98 6.98-11.83 11.53-.08 0-.18-.01-.25-.01-9.98 0-24.38 8.09-24.38 18.07s14.4 18.07 24.38 18.07c.33 0 .7-.01 1.09-.02A25.083 25.083 0 0 0 44.57 83c3.81 0 1.95-1.79-.31-4.57 11.21-2.15 25.9-6.48 31.95-11.78 3.65 4.19 11.29 7.13 16.17 7.13 6.6 0-3.81-5.36-3.81-11.96s10.41-11.95 3.81-11.95zM19.35 62.03a2.76 2.76 0 1 1 2.76-2.76 2.766 2.766 0 0 1-2.76 2.76zM3.41 45.74a3.415 3.415 0 1 0 3.42 3.42 3.416 3.416 0 0 0-3.42-3.42zm7.38-10.77a2.61 2.61 0 1 0 2.61 2.61 2.612 2.612 0 0 0-2.61-2.61zm-4.88-9.72a4.6 4.6 0 1 0-4.59-4.6 4.6 4.6 0 0 0 4.59 4.6zm7.24-19.97a2.64 2.64 0 1 0-2.64-2.64 2.637 2.637 0 0 0 2.64 2.64z"/></svg>