<svg xmlns="http://www.w3.org/2000/svg" width="33.82" height="40" viewBox="0 0 33.82 40"><defs><style>.cls-1{fill:#de0914;fill-rule:evenodd}</style></defs><path class="cls-1" d="M17.05 10.11a4.55 4.55 0 1 0 4.56 4.55 4.56 4.56 0 0 0-4.56-4.55zm14.66 4.59l-3.09-3.11 1.14-4.22-4.22-1.15-1.13-4.23-4.23 1.12-3.09-3.1-3.1 3.09-4.23-1.15-1.14 4.23L4.39 7.3l1.12 4.23-3.11 3.09 3.09 3.11-1.14 4.22 4.22 1.15 1.13 4.23 4.23-1.12 3.09 3.1 3.1-3.09 4.23 1.15 1.14-4.23 4.23-1.12-1.12-4.23zm-14.66 7.08a7.12 7.12 0 1 1 7.12-7.12 7.121 7.121 0 0 1-7.12 7.12zm12.42 2.08l-2.58.68-.89 3.28-.45 1.65-1.65-.45-3.27-.89-2.41 2.4-1.21 1.2-.09-.08 3.35 8.34 6-5.7 7.55.4zM15.8 30.52l-2.39-2.4-3.27.87-1.66.43-.44-1.65-.87-3.28-2.78-.75L0 34.69l7.55-.4 6 5.7 3.35-8.36z"/></svg>