<svg xmlns="http://www.w3.org/2000/svg" width="80.004" height="65.25" viewBox="0 0 80.004 65.25"><defs><style>.cls-1{fill:#de0914;fill-rule:evenodd}</style></defs><path id="payment" class="cls-1" d="M964.809 1117.65h21.327a1.257 1.257 0 0 0 1.333-1.33v-11.99a1.257 1.257 0 0 0-1.333-1.33h-21.327a1.257 1.257 0 0 0-1.333 1.33v11.99a1.257 1.257 0 0 0 1.333 1.33zm1.333-11.98H984.8v9.32h-18.658v-9.32zm-37.322-5.33h10.663a1.335 1.335 0 0 0 0-2.67H928.82a1.335 1.335 0 0 0 0 2.67zm16 0h10.664a1.335 1.335 0 0 0 0-2.67h-10.669a1.335 1.335 0 0 0 0 2.67zm-16 5.33h17.328a1.335 1.335 0 0 0 0-2.67H928.82a1.335 1.335 0 0 0 0 2.67zm26.658-2.67h-4a1.335 1.335 0 0 0 0 2.67h4a1.335 1.335 0 0 0 0-2.67zm45.452-16.52a4.981 4.981 0 0 0-3.6-2l-3.2-.38v-6.41a5.347 5.347 0 0 0-5.332-5.33h-61.311a5.347 5.347 0 0 0-5.332 5.33v42.63a5.353 5.353 0 0 0 3.819 5.11 5.188 5.188 0 0 0 4.712 5.28l61.582 6.93h.532a5.338 5.338 0 0 0 5.332-4.53l4-42.76a5.172 5.172 0 0 0-1.202-3.87zm-76.109-4.79h66.647v7.99h-66.647v-7.99zm2.666-6.66H988.8a2.673 2.673 0 0 1 2.666 2.66v1.33h-66.645v-1.33a2.672 2.672 0 0 1 2.666-2.66zm-2.666 45.29v-27.98h66.647v27.98a2.673 2.673 0 0 1-2.666 2.66h-61.315a2.672 2.672 0 0 1-2.666-2.66zm74.645-30.51l-4 42.76a2.682 2.682 0 0 1-2.933 2.4l-61.449-6.92a2.7 2.7 0 0 1-2.4-2.4H988.8a5.348 5.348 0 0 0 5.332-5.33v-33.7l3.066.26a2.284 2.284 0 0 1 1.732.93 2.719 2.719 0 0 1 .536 2z" transform="translate(-922.156 -1072.38)"/></svg>