<svg xmlns="http://www.w3.org/2000/svg" width="62.125" height="40" viewBox="0 0 62.125 40"><defs><style>.cls-1{fill:#de0914;fill-rule:evenodd}</style></defs><path id="payment" class="cls-1" d="M853.173 2122.29a5.289 5.289 0 0 0-5.3-5.29h-46.632a5.3 5.3 0 0 0-5.3 5.29v4.63h57.231v-4.63zm-4.256 16.99a.326.326 0 0 0-.465 0l-5.073 5.06-2.027-2.02a.345.345 0 0 0-.465 0l-1.862 1.86a.324.324 0 0 0 0 .46l4.121 4.12a.345.345 0 0 0 .465 0l7.168-7.16a.321.321 0 0 0 0-.46zm-4-8.51a13.026 13.026 0 0 0-6.586 1.77h-42.389v16.05a5.3 5.3 0 0 0 5.3 5.29h35.181a13.123 13.123 0 1 0 8.496-23.11zm-29.441 15.88a.683.683 0 0 1-.68.68h-10.48a.683.683 0 0 1-.68-.68v-2.07a.683.683 0 0 1 .68-.68H814.8a.683.683 0 0 1 .68.68v2.07zm29.441 5.55a8.315 8.315 0 1 1 8.327-8.31 8.318 8.318 0 0 1-8.325 8.31z" transform="translate(-795.938 -2117)"/></svg>