<svg xmlns="http://www.w3.org/2000/svg" width="21.94" height="16" viewBox="0 0 21.94 16"><defs><style>.cls-1{fill:#f1f1f1;fill-rule:evenodd}</style></defs><path class="cls-1" d="M21.49 0H.45a.455.455 0 0 0-.46.457v5.486a.455.455 0 0 0 .46.457h2.74v9.144a.406.406 0 0 0 .23.458 1.934 1.934 0 0 0 .64-.2l1.01-.506a1.039 1.039 0 0 1 .82 0l1.01.506a1.038 1.038 0 0 0 .82 0l1.01-.506a1.039 1.039 0 0 1 .82 0l1.01.506a1.038 1.038 0 0 0 .82 0l1.01-.506a1.039 1.039 0 0 1 .82 0l1.01.506a1.038 1.038 0 0 0 .82 0l1.01-.506a1.039 1.039 0 0 1 .82 0l1.01.506a1.934 1.934 0 0 0 .64.2.406.406 0 0 0 .23-.458V6.4h2.74a.455.455 0 0 0 .46-.457V.456A.455.455 0 0 0 21.49 0zm-3.66 14.751l-.55-.277a1.95 1.95 0 0 0-1.64 0l-.98.492h-.06l-.98-.492a1.95 1.95 0 0 0-1.64 0l-.98.492h-.06l-.98-.492a1.95 1.95 0 0 0-1.64 0l-.98.492h-.06l-.98-.492a1.95 1.95 0 0 0-1.64 0l-.55.277V3.657h13.72v11.094zm3.21-9.265h-2.29V3.657a.457.457 0 1 0 0-.914H3.19a.457.457 0 1 0 0 .914v1.829H.9V.913h20.14v4.572zm-4.58 0h-1.83a.457.457 0 1 0 0 .914h1.83a.457.457 0 1 0 0-.914zm0 1.829h-1.83a.458.458 0 1 0 0 .915h1.83a.458.458 0 1 0 0-.916zm-5.49-1.829H5.48a.457.457 0 1 0 0 .914h5.49a.457.457 0 1 0 0-.914zm5.49 6.4h-1.83a.457.457 0 1 0 0 .914h1.83a.457.457 0 1 0 0-.914zm-9.15 0H5.48a.457.457 0 1 0 0 .914h1.83a.457.457 0 1 0 0-.914zm.94-4.571H5.48a.458.458 0 1 0 0 .915h2.77a.458.458 0 0 0 0-.915zM5.48 9.6a.457.457 0 1 0 .46.457.461.461 0 0 0-.46-.457zm1.83 0a.457.457 0 1 0 .46.457.461.461 0 0 0-.46-.457zm1.83 0a.457.457 0 1 0 .46.457.461.461 0 0 0-.46-.457zm1.83 0a.457.457 0 1 0 .46.457.461.461 0 0 0-.46-.457zm1.83 0a.457.457 0 1 0 .46.457.461.461 0 0 0-.46-.457zm1.83 0a.457.457 0 1 0 .46.457.461.461 0 0 0-.46-.457zm1.83 0a.457.457 0 1 0 .46.457.461.461 0 0 0-.46-.457z"/></svg>