<svg xmlns="http://www.w3.org/2000/svg" width="80.03" height="53.35" viewBox="0 0 80.03 53.35"><defs><style>.cls-1{fill:#de0914;fill-rule:evenodd}</style></defs><path id="return" class="cls-1" d="M1391 1097.67a19.357 19.357 0 0 0-17.84-19.29v-.08h-14.88v2.98h13.39a16.385 16.385 0 0 1 0 32.77h-41.65v-11.69a1.486 1.486 0 0 0-2.46-1.13l-16.07 13.9a1.491 1.491 0 0 0-.52 1.13 1.507 1.507 0 0 0 .52 1.13l16.07 13.9a1.484 1.484 0 0 0 .98.36 1.434 1.434 0 0 0 .61-.14 1.484 1.484 0 0 0 .87-1.35v-13.13h43.14v-.08a19.355 19.355 0 0 0 17.84-19.28zm-63.95 29.24l-12.31-10.65 12.31-10.65v21.3z" transform="translate(-1310.97 -1078.31)"/></svg>