<svg id="Capa_1" xmlns="http://www.w3.org/2000/svg" viewBox="0 0 30 30"><style>.st0{fill:#fee61a;stroke:#d1b92c;stroke-miterlimit:10}.st1{fill:#ddc72c}</style><path class="st0" d="M28.6 14c.6.5.6 1.3.2 1.9 0 .1-.1.1-.2.2-.5.4-.6 1.2-.3 1.8.4.6.2 1.5-.4 1.9-.1 0-.1.1-.2.1-.5.2-.8.7-.8 1.2 0 .1 0 .3.1.4.2.7-.2 1.5-.9 1.7-.1 0-.2 0-.2.1-.7.1-1.2.7-1.2 1.4s-.6 1.4-1.3 1.4H23c-.6 0-1.2.4-1.3 1-.2.6-.7 1-1.3 1-.2 0-.4 0-.6-.1-.2-.1-.4-.1-.6-.1-.5 0-.9.2-1.2.6-.4.6-1.2.8-1.9.4-.1 0-.1-.1-.2-.1-.5-.5-1.3-.5-1.8 0-.6.5-1.4.5-1.9-.1-.1-.1-.1-.1-.1-.2-.4-.6-1.1-.8-1.7-.5-.7.3-1.5 0-1.8-.6 0-.1-.1-.2-.1-.2-.2-.6-.7-1-1.3-1h-.4c-.8 0-1.4-.6-1.4-1.4 0-.7-.5-1.3-1.2-1.4-.7-.1-1.3-.8-1.2-1.5 0-.1 0-.2.1-.2.2-.7-.1-1.4-.8-1.6-.7-.3-1-1.1-.7-1.8 0-.1.1-.1.1-.2.3-.8.2-1.6-.3-2.1-.6-.5-.6-1.3-.2-1.9 0-.1.1-.1.2-.2.5-.4.6-1.2.3-1.8-.4-.6-.2-1.5.4-1.9.1 0 .1-.1.2-.1.4-.2.7-.6.7-1.2v-.4c0-.1-.1-.3-.1-.4 0-.7.5-1.3 1.2-1.3.7-.1 1.2-.7 1.2-1.3v-.1c0-.8.6-1.4 1.3-1.4h.5c.6 0 1.1-.4 1.3-1 .2-.6.7-1 1.3-1 .2 0 .4 0 .6.1.6.3 1.4.1 1.7-.5.3-.3.7-.6 1.2-.6.3 0 .7.1.9.3.5.5 1.3.5 1.8 0 .3-.2.6-.3.9-.3.5 0 .9.2 1.2.6.2.4.7.6 1.2.6.2 0 .4 0 .6-.1.7-.3 1.5 0 1.8.6 0 .1.1.1.1.2.2.6.7 1 1.3 1h.4c.8 0 1.4.6 1.4 1.4 0 .7.5 1.3 1.2 1.4.7.1 1.3.8 1.2 1.5 0 .1 0 .2-.1.2-.1.2-.1.4-.1.5 0 .5.3 1 .8 1.3.7.3 1 1.1.7 1.8 0 .1-.1.1-.1.2-.4.5-.3 1.3.2 1.8zm-2.9 1.1c0-5.9-4.8-10.7-10.7-10.7S4.4 9.2 4.4 15.1s4.8 10.7 10.7 10.7S25.7 21 25.7 15.1z"/><path class="st1" d="M15.1 4.4c5.9 0 10.7 4.8 10.7 10.7S21 25.7 15.1 25.7 4.4 21 4.4 15.1 9.2 4.4 15.1 4.4z"/></svg>