<svg xmlns="http://www.w3.org/2000/svg" width="33.82" height="40" viewBox="0 0 33.82 40">
  <metadata><?xpacket begin="﻿" id="W5M0MpCehiHzreSzNTczkc9d"?>
<x:xmpmeta xmlns:x="adobe:ns:meta/" x:xmptk="Adobe XMP Core 5.6-c138 79.159824, 2016/09/14-01:09:01        ">
   <rdf:RDF xmlns:rdf="http://www.w3.org/1999/02/22-rdf-syntax-ns#">
      <rdf:Description rdf:about=""/>
   </rdf:RDF>
</x:xmpmeta>
                                                                                                    
                                                                                                    
                                                                                                    
                                                                                                    
                                                                                                    
                                                                                                    
                                                                                                    
                                                                                                    
                                                                                                    
                                                                                                    
                                                                                                    
                                                                                                    
                                                                                                    
                                                                                                    
                                                                                                    
                                                                                                    
                                                                                                    
                                                                                                    
                                                                                                    
                                                                                                    
                           
<?xpacket end="w"?></metadata>
<defs>
    <style>
      .cls-1 {
        fill: #de0914;
        fill-rule: evenodd;
      }
    </style>
  </defs>
  <path class="cls-1" d="M1075.64,2064.11a4.55,4.55,0,1,0,4.56,4.55A4.56,4.56,0,0,0,1075.64,2064.11Zm14.66,4.59-3.09-3.11,1.14-4.22-4.22-1.15-1.13-4.23-4.23,1.12-3.09-3.1-3.1,3.09-4.23-1.15-1.14,4.23-4.23,1.12,1.12,4.23-3.11,3.09,3.09,3.11-1.14,4.22,4.22,1.15,1.13,4.23,4.23-1.12,3.09,3.1,3.1-3.09,4.23,1.15,1.14-4.23,4.23-1.12-1.12-4.23Zm-14.66,7.08a7.12,7.12,0,1,1,7.12-7.12A7.121,7.121,0,0,1,1075.64,2075.78Zm12.42,2.08-2.58.68-0.89,3.28-0.45,1.65-1.65-.45-3.27-.89-2.41,2.4-1.21,1.2-0.09-.08,3.35,8.34,6-5.7,7.55,0.4Zm-13.67,6.66-2.39-2.4-3.27.87-1.66.43-0.44-1.65-0.87-3.28-2.78-.75-4.39,10.95,7.55-.4,6,5.7,3.35-8.36Z" transform="translate(-1058.59 -2054)"/>
</svg>
