<svg xmlns="http://www.w3.org/2000/svg" width="62.125" height="40" viewBox="0 0 62.125 40">
  <metadata><?xpacket begin="﻿" id="W5M0MpCehiHzreSzNTczkc9d"?>
<x:xmpmeta xmlns:x="adobe:ns:meta/" x:xmptk="Adobe XMP Core 5.6-c138 79.159824, 2016/09/14-01:09:01        ">
   <rdf:RDF xmlns:rdf="http://www.w3.org/1999/02/22-rdf-syntax-ns#">
      <rdf:Description rdf:about=""/>
   </rdf:RDF>
</x:xmpmeta>
                                                                                                    
                                                                                                    
                                                                                                    
                                                                                                    
                                                                                                    
                                                                                                    
                                                                                                    
                                                                                                    
                                                                                                    
                                                                                                    
                                                                                                    
                                                                                                    
                                                                                                    
                                                                                                    
                                                                                                    
                                                                                                    
                                                                                                    
                                                                                                    
                                                                                                    
                                                                                                    
                           
<?xpacket end="w"?></metadata>
<defs>
    <style>
      .cls-1 {
        fill: #de0914;
        fill-rule: evenodd;
      }
    </style>
  </defs>
  <path id="payment" class="cls-1" d="M853.173,2122.29a5.289,5.289,0,0,0-5.3-5.29H801.241a5.3,5.3,0,0,0-5.3,5.29v4.63h57.231v-4.63h0Zm-4.256,16.99a0.326,0.326,0,0,0-.465,0l-5.073,5.06-2.027-2.02a0.345,0.345,0,0,0-.465,0l-1.862,1.86a0.324,0.324,0,0,0,0,.46l4.121,4.12a0.345,0.345,0,0,0,.465,0l7.168-7.16a0.321,0.321,0,0,0,0-.46Zm-4-8.51a13.026,13.026,0,0,0-6.586,1.77H795.942v16.05a5.3,5.3,0,0,0,5.3,5.29h35.181A13.123,13.123,0,1,0,844.919,2130.77Zm-29.441,15.88a0.683,0.683,0,0,1-.68.68H804.316a0.683,0.683,0,0,1-.68-0.68v-2.07a0.683,0.683,0,0,1,.68-0.68H814.8a0.683,0.683,0,0,1,.68.68v2.07h0Zm29.441,5.55a8.315,8.315,0,1,1,8.327-8.31A8.318,8.318,0,0,1,844.919,2152.2Z" transform="translate(-795.938 -2117)"/>
</svg>
