<svg xmlns="http://www.w3.org/2000/svg" width="21.94" height="16" viewBox="0 0 21.94 16">
  <metadata><?xpacket begin="﻿" id="W5M0MpCehiHzreSzNTczkc9d"?>
<x:xmpmeta xmlns:x="adobe:ns:meta/" x:xmptk="Adobe XMP Core 5.6-c138 79.159824, 2016/09/14-01:09:01        ">
   <rdf:RDF xmlns:rdf="http://www.w3.org/1999/02/22-rdf-syntax-ns#">
      <rdf:Description rdf:about=""/>
   </rdf:RDF>
</x:xmpmeta>
                                                                                                    
                                                                                                    
                                                                                                    
                                                                                                    
                                                                                                    
                                                                                                    
                                                                                                    
                                                                                                    
                                                                                                    
                                                                                                    
                                                                                                    
                                                                                                    
                                                                                                    
                                                                                                    
                                                                                                    
                                                                                                    
                                                                                                    
                                                                                                    
                                                                                                    
                                                                                                    
                           
<?xpacket end="w"?></metadata>
<defs>
    <style>
      .cls-1 {
        fill: #f1f1f1;
        fill-rule: evenodd;
      }
    </style>
  </defs>
  <path class="cls-1" d="M1403.52,8.5h-21.04a0.455,0.455,0,0,0-.46.457v5.486a0.455,0.455,0,0,0,.46.457h2.74v9.144a0.406,0.406,0,0,0,.23.458,1.934,1.934,0,0,0,.64-0.2l1.01-.506a1.039,1.039,0,0,1,.82,0l1.01,0.506a1.038,1.038,0,0,0,.82,0l1.01-.506a1.039,1.039,0,0,1,.82,0l1.01,0.506a1.038,1.038,0,0,0,.82,0l1.01-.506a1.039,1.039,0,0,1,.82,0l1.01,0.506a1.038,1.038,0,0,0,.82,0l1.01-.506a1.039,1.039,0,0,1,.82,0l1.01,0.506a1.934,1.934,0,0,0,.64.2,0.406,0.406,0,0,0,.23-0.458V14.9h2.74a0.455,0.455,0,0,0,.46-0.457V8.956A0.455,0.455,0,0,0,1403.52,8.5Zm-3.66,14.751-0.55-.277a1.95,1.95,0,0,0-1.64,0l-0.98.492h-0.06l-0.98-.492a1.95,1.95,0,0,0-1.64,0l-0.98.492h-0.06l-0.98-.492a1.95,1.95,0,0,0-1.64,0l-0.98.492h-0.06l-0.98-.492a1.95,1.95,0,0,0-1.64,0l-0.55.277V12.157h13.72V23.251Zm3.21-9.265h-2.29V12.157a0.457,0.457,0,1,0,0-.914h-15.56a0.457,0.457,0,1,0,0,.914v1.829h-2.29V9.413h20.14v4.572Zm-4.58,0h-1.83a0.457,0.457,0,1,0,0,.914h1.83A0.457,0.457,0,1,0,1398.49,13.986Zm0,1.829h-1.83a0.457,0.457,0,1,0,0,.915h1.83A0.457,0.457,0,1,0,1398.49,15.814ZM1393,13.986h-5.49a0.457,0.457,0,1,0,0,.914H1393A0.457,0.457,0,1,0,1393,13.986Zm5.49,6.4h-1.83a0.457,0.457,0,1,0,0,.914h1.83A0.457,0.457,0,1,0,1398.49,20.386Zm-9.15,0h-1.83a0.457,0.457,0,1,0,0,.914h1.83A0.457,0.457,0,1,0,1389.34,20.386Zm0.94-4.571h-2.77a0.457,0.457,0,1,0,0,.915h2.77A0.457,0.457,0,0,0,1390.28,15.815Zm-2.77,2.285a0.457,0.457,0,1,0,.46.457A0.461,0.461,0,0,0,1387.51,18.1Zm1.83,0a0.457,0.457,0,1,0,.46.457A0.461,0.461,0,0,0,1389.34,18.1Zm1.83,0a0.457,0.457,0,1,0,.46.457A0.461,0.461,0,0,0,1391.17,18.1Zm1.83,0a0.457,0.457,0,1,0,.46.457A0.461,0.461,0,0,0,1393,18.1Zm1.83,0a0.457,0.457,0,1,0,.46.457A0.461,0.461,0,0,0,1394.83,18.1Zm1.83,0a0.457,0.457,0,1,0,.46.457A0.461,0.461,0,0,0,1396.66,18.1Zm1.83,0a0.457,0.457,0,1,0,.46.457A0.461,0.461,0,0,0,1398.49,18.1Z" transform="translate(-1382.03 -8.5)"/>
</svg>
