<svg xmlns="http://www.w3.org/2000/svg" width="79.969" height="60.25" viewBox="0 0 79.969 60.25">
  <metadata><?xpacket begin="﻿" id="W5M0MpCehiHzreSzNTczkc9d"?>
<x:xmpmeta xmlns:x="adobe:ns:meta/" x:xmptk="Adobe XMP Core 5.6-c138 79.159824, 2016/09/14-01:09:01        ">
   <rdf:RDF xmlns:rdf="http://www.w3.org/1999/02/22-rdf-syntax-ns#">
      <rdf:Description rdf:about=""/>
   </rdf:RDF>
</x:xmpmeta>
                                                                                                    
                                                                                                    
                                                                                                    
                                                                                                    
                                                                                                    
                                                                                                    
                                                                                                    
                                                                                                    
                                                                                                    
                                                                                                    
                                                                                                    
                                                                                                    
                                                                                                    
                                                                                                    
                                                                                                    
                                                                                                    
                                                                                                    
                                                                                                    
                                                                                                    
                                                                                                    
                           
<?xpacket end="w"?></metadata>
<defs>
    <style>
      .cls-1 {
        fill: #de0914;
        fill-rule: evenodd;
      }
    </style>
  </defs>
  <path class="cls-1" d="M567.3,1096.41a1.1,1.1,0,0,0-.068-0.17,1.545,1.545,0,0,0-.135-0.21l-5.548-7.36a1.255,1.255,0,0,0-1.764-.25,1.242,1.242,0,0,0-.253,1.75l4.051,5.38H547.556a1.255,1.255,0,1,0,0,2.51H563.58l-4.051,5.37a1.26,1.26,0,0,0,2.017,1.51l5.548-7.36a2.046,2.046,0,0,0,.134-0.21,1.1,1.1,0,0,0,.07-0.17,1.25,1.25,0,0,0,.064-0.4,1.235,1.235,0,0,0-.064-0.39h0Zm43.47,20.53-5.826-23.2a5.041,5.041,0,0,0-4.892-3.8H583.815v-11.29a3.78,3.78,0,0,0-3.782-3.77H534.648a3.78,3.78,0,0,0-3.783,3.77v37.64a3.78,3.78,0,0,0,3.783,3.77h7.7a8.716,8.716,0,0,0-2.655,6.27,8.825,8.825,0,0,0,17.65,0,8.715,8.715,0,0,0-2.654-6.27h34.3a8.715,8.715,0,0,0-2.654,6.27,8.825,8.825,0,0,0,17.649,0,8.715,8.715,0,0,0-2.654-6.27h6.989A2.515,2.515,0,0,0,610.767,1116.94Zm-10.718-24.49a2.514,2.514,0,0,1,2.446,1.9l2.155,8.58H583.815v-10.48h16.234Zm-45.23,33.88a6.3,6.3,0,1,1-6.3-6.27A6.3,6.3,0,0,1,554.819,1126.33Zm26.475-8.78H534.648a1.258,1.258,0,0,1-1.261-1.26v-37.64a1.265,1.265,0,0,1,1.261-1.26h45.385a1.265,1.265,0,0,1,1.261,1.26v38.9Zm20.171,8.78a6.3,6.3,0,1,1-6.3-6.27A6.3,6.3,0,0,1,601.465,1126.33Zm-17.65-8.78v-12.11h21.466l3.04,12.11H583.815Zm-2.521,6.27H561.122a1.255,1.255,0,1,0,0,2.51h20.172A1.255,1.255,0,1,0,581.294,1123.82Z" transform="translate(-530.875 -1074.88)"/>
</svg>
